<svg fill="none" height="241" viewBox="0 0 255 241" width="255" xmlns="http://www.w3.org/2000/svg" xmlns:xlink="http://www.w3.org/1999/xlink"><filter id="a" color-interpolation-filters="sRGB" filterUnits="userSpaceOnUse" height="255" width="255" x="0" y="-7"><feFlood flood-opacity="0" result="BackgroundImageFix"/><feColorMatrix in="SourceAlpha" type="matrix" values="0 0 0 0 0 0 0 0 0 0 0 0 0 0 0 0 0 0 127 0"/><feOffset dy="4"/><feGaussianBlur stdDeviation="6"/><feColorMatrix type="matrix" values="0 0 0 0 0 0 0 0 0 0 0 0 0 0 0 0 0 0 0.15 0"/><feBlend in2="BackgroundImageFix" mode="normal" result="effect1_dropShadow"/><feBlend in="SourceGraphic" in2="effect1_dropShadow" mode="normal" result="shape"/></filter><clipPath id="b"><path d="m12 1h231v231h-231z"/></clipPath><g clip-path="url(#b)" filter="url(#a)"><path d="m214.432 72.6899-139.5284-62.6723c-6.0177-2.70435-13.0912-.0158-15.7955 6.0019l-25.4538 56.6704z" fill="#999"/><path d="m23.9484 72.6899h207.1036c6.599 0 11.948 5.3486 11.948 11.9484v127.4487c0 6.599-5.349 11.948-11.948 11.948h-207.1036c-6.5998 0-11.9484-5.349-11.9484-11.948v-127.4487c0-6.5993 5.3486-11.9484 11.9484-11.9484z" fill="#ccc"/><path d="m231.052 72.6899h-111.092c4.385 41.5481 41.616 71.6741 83.165 67.2891 14.624-1.542 28.48-7.317 39.875-16.609v-38.7317c0-6.5993-5.349-11.9484-11.948-11.9484z" fill="#29abe2"/><path d="m31.9136 92.6037h47.7931v31.8623h-47.7931z" fill="#fbb03b"/><path d="m59.793 92.6037h7.9654v31.8623h-7.9654z" fill="#f15a24"/><g fill="#808080"><path d="m31.9136 152.345h7.9654v7.966h-7.9654z"/><path d="m47.8442 152.345h7.9655v7.966h-7.9655z"/><path d="m63.7759 152.345h7.9654v7.966h-7.9654z"/><path d="m79.7065 152.345h7.9655v7.966h-7.9655z"/><path d="m95.6372 152.345h7.9658v7.966h-7.9658z"/><path d="m111.569 152.345h7.965v7.966h-7.965z"/><path d="m127.5 152.345h7.965v7.966h-7.965z"/><path d="m143.431 152.345h7.965v7.966h-7.965z"/></g><path d="m179.276 204.121c8.798 0 15.931-7.133 15.931-15.931 0-8.799-7.133-15.931-15.931-15.931s-15.931 7.132-15.931 15.931c0 8.798 7.133 15.931 15.931 15.931z" fill="#da4836"/><path d="m203.172 172.259c-4.592.012-8.953 2.015-11.948 5.496 5.309 5.943 5.309 14.928 0 20.87 5.779 6.616 15.823 7.292 22.439 1.513 6.615-5.779 7.292-15.823 1.513-22.439-3.027-3.464-7.404-5.448-12.004-5.44z" fill="#f7931e"/><path d="m175.293 184.207h7.965v7.966h-7.965z" fill="#c1272d"/><g fill="#808080"><path d="m31.9136 184.207h7.9654v7.966h-7.9654z"/><path d="m47.8442 184.207h35.8447v7.966h-35.8447z"/><path d="m31.9136 200.138h51.776v7.966h-51.776z"/><path d="m99.6206 184.207h7.9654v7.966h-7.9654z"/><path d="m115.551 184.207h35.845v7.966h-35.845z"/><path d="m99.6206 200.138h51.7764v7.966h-51.7764z"/></g><path d="m47.8445 112.517h-15.9309v-7.965h11.9484v-11.9483h7.9654v15.9313c0 2.199-1.7844 3.982-3.9829 3.982z" fill="#f15a24"/><path d="m243 118.257-2.517 2.051c-7.288 5.914-15.668 10.331-24.665 13.008 5.01-6.213 8.905-13.251 11.502-20.799h15.68v-7.965h-13.143c2.78-10.1879 4.433-20.6546 4.927-31.2048-1.199-.4182-2.461-.6411-3.732-.6574h-4.193c-.486 10.7975-2.271 21.4948-5.325 31.8622h-22.343v-31.8622h-7.966v31.8622h-22.343c-3.055-10.367-4.843-21.0647-5.329-31.8622h-7.985v.199c.481 10.7059 2.154 21.3278 4.99 31.6632h-24.992c-6.368-9.535-10.347-20.4638-11.602-31.8626h-8.014l.044.3984c4.038 39.0472 36.02 69.2722 75.23 71.1042v.187h7.966v-.171c15.851-.809 31.105-6.321 43.81-15.835zm-101.269-5.74h21.359c2.617 7.6 6.548 14.681 11.614 20.918-12.721-3.776-24.139-11.016-32.973-20.918zm49.493 23.24c-7.611-2.242-14.521-10.753-19.559-23.24h19.559zm7.966 0v-23.24h19.559c-5.038 12.487-11.944 20.998-19.559 23.24z" fill="#0071bc"/><path d="m156.108 72.6899-101.8945-45.7696-8.1608 18.1651 61.4543 27.6045z" fill="#f7931e"/></g></svg>