<svg height="512" viewBox="0 0 512 512" width="512" xmlns="http://www.w3.org/2000/svg" xmlns:xlink="http://www.w3.org/1999/xlink"><clipPath id="a"><path d="m0 0h512v512h-512z"/></clipPath><g clip-path="url(#a)"><g fill="#537796"><path d="m131.469 143.142-50.453 145.131h50.453z" transform="translate(-32.572 91.898)"/><path d="m193.548 244.974.321-.321v-54.163l-42.531-25.79v80.277z" transform="translate(108.688 135.197)"/><path d="m367.893 332.793v50.219l19.361-19.361h-15.218v-19.973h19.972v15.215l37.5-37.5h-15.22v-19.967h19.972v15.218l27.657-27.656v-180.763h-6.147v-16.9h-147.492v16.9h-6.147v59.248h-10.82v9.027h10.819v88.265l-145.542-88.265h8.355v-9.026h-18.052v3.144l-77.691 221.742h26l64.58-185.776zm46.4-200.368h19.967v19.975h-19.972zm0 42.249h19.967v19.975h-19.972zm0 42.252h19.967v19.974h-19.972zm0 42.249h19.967v19.975h-19.972zm-42.252-126.75h19.972v19.975h-19.977zm0 42.249h19.972v19.975h-19.977zm0 42.252h19.972v19.974h-19.977zm0 42.249h19.972v19.975h-19.977zm0 42.252h19.972v19.973h-19.977zm-42.249-169h19.968v19.973h-19.973zm0 42.249h19.968v19.975h-19.973zm0 42.252h19.968v19.972h-19.973zm0 42.249h19.968v19.973h-19.973z" transform="translate(-56.31 -12.189)"/><path d="m142.508 306.392v-147.245l-41.266-25.026-.482 1.387h.074v170.884z" transform="translate(7.089 73.779)"/><path d="m159.31 286.029v-116.5l-41.675-25.273v141.773z" transform="translate(40.988 94.141)"/><path d="m226.368 167.472h-9.283v9.028h9.283v173.706h9.026v-258.881h-9.026z" transform="translate(240.757 -12.189)"/><path d="m258.133 308.989v-29.549h28.667v-85.75l-41.674-25.274v111.024h6.992v29.549h-172.708v6.017h172.706v85.611h6.018v-85.611h65.609l-18.443 18.435h185.909v-185.9l-161.449 161.448zm206-96.076v93.452h-93.454z" transform="translate(-35.798 100.731)"/><path d="m0 0h18.053v9.026h-18.053z" transform="translate(144.42 78.888)"/><path d="m0 0h18.053v9.026h-18.053z" transform="translate(180.525 78.888)"/><path d="m0 0h18.053v9.026h-18.053z" transform="translate(108.315 78.888)"/><path d="m0 0h13.827v9.026h-13.827z" transform="translate(216.631 78.888)"/><path d="m0 0h18.053v9.026h-18.053z" transform="translate(36.105 78.888)"/><path d="m0 0h18.053v9.026h-18.053z" transform="translate(0 78.888)"/><path d="m0 0h18.053v9.026h-18.053z" transform="translate(72.21 78.888)"/><path d="m0 0h18.053v9.026h-18.053z" transform="translate(198.897 155.284)"/><path d="m0 0h18.053v9.026h-18.053z" transform="translate(162.792 155.284)"/><path d="m125.074 213.631h-5.744v-145.284h-9.03v145.284h-3.282v9.026h18.053z" transform="translate(19.666 -58.347)"/><path d="m0 0h18.053v9.026h-18.053z" transform="translate(421.737 155.284)"/><path d="m0 0h18.053v9.026h-18.053z" transform="translate(493.947 155.284)"/></g></g></svg>