<svg id="svg7119" height="512" viewBox="0 0 16.933 16.933" width="512" xmlns="http://www.w3.org/2000/svg" xmlns:svg="http://www.w3.org/2000/svg"><g id="layer1" transform="translate(0 -280.067)"><path id="path21659-7-3-8-43" d="m16.139435 288.53335c0-4.23763-3.435281-7.67291-7.6729101-7.67291-1.1295409 0-2.2021099.24385-3.1677701.68213l.4738701.94774c.82291-.36743 1.7344491-.57154 2.6939-.57154 3.6531291 0 6.6145801 2.96145 6.6145801 6.61458 0 1.4884-.49168 2.86195-1.32162 3.96849l-1.059531-1.05811v2.91041h2.910411l-1.09662-1.09862c1.01926-1.30245 1.62569-2.94152 1.62569-4.72217z" fill="#33b9ef"/><path id="path21147-1-52-7-9-7" d="m.79380392 288.53328c0 4.23764 3.43527988 7.67292 7.67290988 7.67292 1.1295412 0 2.2021102-.24385 3.1677712-.68213l-.473881-.94772c-.8229.36743-1.7344401.57154-2.6938902.57154-3.6531299 0-6.6145799-2.96145-6.6145799-6.61458 0-1.4884.49167-2.86196 1.3216201-3.9685l1.0595298 1.05809v-2.91042h-2.9104199l1.09663 1.09862c-1.01927 1.30247-1.62568998 2.94154-1.62568998 4.72218z" fill="#33b9ef"/><path id="path23440-8-2" d="m8.4666648 284.29998c-1.607371 0-2.9104108 1.30303-2.9104108 2.91041.00101 1.09256.6143299 2.09238 1.5875 2.58899v.8506h2.6458288v-.8475c.9741622-.49712 1.5873912-1.49841 1.5875012-2.59209 0-1.60738-1.303039-2.91041-2.9104192-2.91041z" fill="#fde74c"/><path id="path23442-3-0" d="m7.4083339 291.70831h2.1166701l-.2645892 1.05833h-1.587501z" fill="#e8ab3c"/><path id="path23444-3-7" d="m7.143754 290.64998h2.6458288v1.05833h-2.6458389z" fill="#ffbc42"/><path id="path2663-3-9" d="m8.4676999 280.59581c-1.1676229 0-2.278153.25189-3.27732.70539-.3216169.14582-.103024.62797.2185911.48214.932148-.42307 1.9672668-.65785 3.0587289-.65785 4.0946491 0 7.4083331 3.31318 7.4083331 7.40782 0 1.72057-.592093 3.29516-1.576131 4.55321-.0833.10774-.07193.26137.02687.35502l.646473.64854h-2.009699v-2.00763l.609267.6072c.250089.25901.633484-.12652.373102-.37517l-1.058333-1.05834c-.051-.0502-.120169-.0776-.191717-.076-.143701.003-.258869.11983-.259416.26355v2.9099c-.000529.14612.11743.26502.263548.26561h2.909901c.235289-.00009.353444-.28423.187584-.45113l-.937926-.94154c.96816-1.31556 1.545643-2.93715 1.545643-4.69326 0-4.38062-3.556871-7.9375-7.9375002-7.9375zm0 1.05885c-.996972 0-1.9469209.21155-2.80293.59376-.331965.13974-.1113179.63672.214974.48421.7897889-.35264 1.6660331-.5488 2.587956-.5488 3.5101391 0 6.3494811 2.83934 6.3494811 6.34948 0 1.0333-.246438 2.00697-.683678 2.86908-.18501.32155.318892.57875.470773.24029.473739-.93409.742072-1.99186.742072-3.10937 0-3.79613-3.082528-6.87865-6.8786481-6.87865zm-7.144785.79272c-.2352969.00009-.35344598.28424-.1875839.45113l.9384419.94155c-.968102 1.31559-1.54357399 2.93705-1.54357399 4.69325 0 4.38063 3.55687409 7.93749 7.93750099 7.9375 1.1676081 0 2.2760801-.25137 3.2752501-.70486.321691-.14581.1031-.62846-.218591-.48266-.93215.42307-1.965211.65836-3.0566591.65836-4.0946449 0-7.410403-3.3137-7.410403-7.40834 0-1.72057.586396-3.30086 1.570448-4.55889.08236-.10577.07303-.25607-.0217-.35089l-.644406-.64698h2.008148v2.00814l-.6097829-.60771c-.2500891-.25891-.633399.12652-.3731051.37517l1.058852 1.05885c.1667459.16944.454983.0501.4532021-.18759v-2.91042c.0005292-.14692-.1186891-.26617-.265617-.26561zm7.1427159 1.58802c-1.7503518 0-3.1734498 1.42566-3.1734498 3.17603.00111 1.19143.6689778 2.28261 1.730129 2.82411.313849.16158.55621-.3092.2423609-.47077-.8852011-.45173-1.4424131-1.35965-1.443323-2.35334 0-1.46439 1.1799039-2.64635 2.6442829-2.64635 1.4643921 0 2.6468672 1.18196 2.6468672 2.64635-.0001.99479-.557241 1.90324-1.4433231 2.35541-.09167.0467-.1480661.14214-.1446929.24495v.57361h-2.3807341c-.146118.00053-.2641071.1195-.263548.26561v1.05834c.0005291.14531.1182341.26297.263548.26355h.05788l.2154899.85782c.02909.11778.13448.20056.2557991.20102h1.588016c.3528639 0 .3528639-.52916 0-.52916h-1.380794l-.1328079-.52968h2.0427688c.1453171-.00053.2629692-.11824.2635512-.26355v-1.74977c.977726-.56477 1.587902-1.61089 1.588016-2.74815 0-1.75037-1.425668-3.17603-3.176034-3.17603zm-5.9122999 1.2423c-.09573.005-.181518.0605-.224277.14624-.473742.93409-.74259 1.99186-.74259 3.10937 0 3.79612 3.0851099 6.87917 6.881236 6.87917.996968 0 1.9448511-.21155 2.8008601-.59376.323152-.14331.108178-.62805-.214974-.48473-.789789.35264-1.6639672.54881-2.5858861.54881-3.510143 0-6.351551-2.83935-6.351551-6.34949 0-1.03331.246444-2.00696.683678-2.86907.09412-.18078-.04289-.39562-.246496-.38654zm6.176883.34158c-.00159.00016-.003.00023-.0047.00053-.08721.002-.167632.0476-.2149739.12092l-1.0583331 1.58802c-.1179589.17611.0087.41251.2206572.41186h1.0919229l-.7834119 1.17615c-.2131962.29774.250176.60483.4413139.29249l1.0588519-1.5875c.1159931-.17585-.0100013-.41013-.2206599-.41031h-1.0939891l.7854821-1.17564c.1244729-.17745-.0055-.42109-.2222101-.41651zm-1.3208479 5.29528h2.115116v.52917h-2.115116z" font-variant-ligatures="normal" font-variant-position="normal" font-variant-caps="normal" font-variant-numeric="normal" font-variant-alternates="normal" font-feature-settings="normal" text-indent="0" text-align="start" text-decoration-line="none" text-decoration-style="solid" text-decoration-color="#000000" text-transform="none" text-orientation="mixed" white-space="normal" shape-padding="0" isolation="auto" mix-blend-mode="normal" solid-color="#000000" solid-opacity="1" vector-effect="none"/></g></svg>