<svg xmlns="http://www.w3.org/2000/svg" width="512" height="512" viewBox="0 0 512 512"><circle cx="256" cy="256" r="256" fill="#ffce00"/><path fill="#ffa300" d="M512 256c0-22.121-2.806-43.586-8.081-64.059l-73.482-73.482L81.563 228.682 215.28 362.399 81.563 393.211l110.822 110.823C212.725 509.235 234.039 512 256 512c141.385 0 256-114.615 256-256z"/><path fill="#7584f2" d="M430.437 118.459H81.563v110.223h252.883l26.973 41.789 26.973-41.789h42.045z"/><path fill="#606aea" d="M256.12 118.458v110.224h78.326l26.973 41.789 26.973-41.789h42.045V118.458z"/><path fill="#fff" d="M109.208 170.422c0-19.991 15.067-33.976 35.157-33.976s35.059 13.984 35.059 33.976c0 9.06-3.053 16.938-8.272 22.749l4.136 5.023-11.817 9.454-4.826-5.909a39.604 39.604 0 01-14.28 2.659c-20.09 0-35.157-13.984-35.157-33.976zm38.998 18.613l-6.007-7.288 11.719-9.454 6.204 7.484a22.12 22.12 0 002.068-9.355c0-10.734-6.992-19.007-17.825-19.007-10.931 0-17.923 8.273-17.923 19.007 0 10.636 6.992 19.007 17.923 19.007 1.28 0 2.561-.099 3.841-.394zM81.563 282.988h348.874v110.223H177.554L150.581 435l-26.973-41.789H81.563z"/><path fill="#e9edf5" d="M256.12 282.988h174.317v110.223H256.12z"/><path fill="#606aea" d="M375.123 367.745l-3.25-9.454h-25.9l-3.25 9.454h-19.204l24.719-65.686h21.272l24.817 65.686zm-16.25-48.945l-8.371 24.719h16.742z"/></svg>