<svg xmlns="http://www.w3.org/2000/svg" xmlns:xlink="http://www.w3.org/1999/xlink" width="512" height="512" viewBox="0 0 510 510"><linearGradient id="a"><stop offset="0" stop-color="#b5dbff"/><stop offset="1" stop-color="#48b2e3"/></linearGradient><linearGradient id="c" x1="172.81" x2="474.477" y1="55.025" y2="356.692" gradientUnits="userSpaceOnUse" xlink:href="#a"/><linearGradient id="d" x1="221.159" x2="419.445" y1="215.173" y2="413.459" gradientTransform="rotate(180 313.892 255)" gradientUnits="userSpaceOnUse" xlink:href="#a"/><linearGradient id="e" x1="383.054" x2="39.821" y1="478.946" y2="135.713" gradientUnits="userSpaceOnUse"><stop offset="0" stop-color="#07485e" stop-opacity="0"/><stop offset=".333" stop-color="#063f52" stop-opacity=".333"/><stop offset=".936" stop-color="#032632" stop-opacity=".936"/><stop offset="1" stop-color="#03232e"/></linearGradient><linearGradient id="b"><stop offset="0" stop-color="#76e2f8"/><stop offset="1" stop-color="#48b2e3"/></linearGradient><linearGradient id="f" x1="39.264" x2="254.523" y1="269.394" y2="484.653" gradientUnits="userSpaceOnUse" xlink:href="#b"/><linearGradient id="g" x1="303.894" x2="445.383" y1="308.166" y2="449.655" gradientTransform="rotate(-135 255.006 422.038)" gradientUnits="userSpaceOnUse" xlink:href="#b"/><path fill="url(#c)" d="M487.853 140.738h-8.88a175.363 175.363 0 0 0-9.752-21.656l6.832-6.832c8.649-8.649 8.649-22.671 0-31.32L429.07 33.947c-8.649-8.649-22.671-8.649-31.32 0l-8.811 8.811c-6.358-3-12.93-5.616-19.677-7.85V22.147C369.262 9.915 359.346 0 347.115 0H280.67c-12.231 0-22.147 9.915-22.147 22.147v12.761a175.463 175.463 0 0 0-19.677 7.85l-8.811-8.811c-8.649-8.649-22.671-8.649-31.32 0L151.732 80.93c-8.649 8.649-8.649 22.672 0 31.32l6.832 6.832a175.363 175.363 0 0 0-9.752 21.656h-8.88c-12.231 0-22.147 9.915-22.147 22.147v66.444c0 12.231 9.915 22.147 22.147 22.147h4.906a174.992 174.992 0 0 0 9.72 25.663l-2.825 2.825c-8.649 8.649-8.649 22.671 0 31.32l46.983 46.983c8.649 8.649 22.671 8.649 31.32 0l.846-.845a175.083 175.083 0 0 0 27.643 11.858v.787c0 12.231 9.915 22.147 22.147 22.147h66.445c12.231 0 22.147-9.915 22.147-22.147v-.787a175.349 175.349 0 0 0 27.643-11.858l.846.845c8.649 8.649 22.671 8.649 31.32 0l46.983-46.983c8.649-8.649 8.649-22.671 0-31.32l-2.825-2.825a175.106 175.106 0 0 0 9.72-25.663h4.906c12.231 0 22.147-9.915 22.147-22.147v-66.444c-.004-12.231-9.919-22.147-22.151-22.147zm-173.96 132.149c-39.102 0-70.793-31.691-70.793-70.793s31.691-70.793 70.793-70.793 70.793 31.692 70.793 70.793-31.692 70.793-70.793 70.793z"/><path fill="url(#d)" d="M313.893 330.991c71.195 0 128.897-57.702 128.897-128.897S385.088 73.196 313.893 73.196s-128.897 57.702-128.897 128.897 57.701 128.898 128.897 128.898zm0-199.69c39.102 0 70.793 31.691 70.793 70.793s-31.691 70.793-70.793 70.793-70.793-31.692-70.793-70.793 31.691-70.793 70.793-70.793z"/><path fill="url(#e)" d="M280.67 392.215h66.444c3.727 0 7.236-.925 10.317-2.551L222.12 255.354c-6.172-6.172-15.177-6.172-21.348 0l-2.84 2.84-21.263-21.198c-2.849-4.145-7.619-4.865-13.028-4.865 0 0-45.723-.265-45.593.58 1.628 10.625 10.803 18.764 21.884 18.764h4.906a174.95 174.95 0 0 0 9.72 25.663l-2.825 2.825c-8.649 8.649-8.649 22.671 0 31.32l46.983 46.983c8.649 8.649 22.671 8.649 31.32 0l.846-.845a175.083 175.083 0 0 0 27.643 11.858v.787c-.001 12.233 9.914 22.149 22.145 22.149z"/><path fill="url(#f)" d="M264.067 330.556h-6.337a125.052 125.052 0 0 0-6.959-15.453l4.875-4.875c6.172-6.171 6.172-16.177 0-22.349l-33.526-33.526c-6.171-6.172-16.177-6.172-22.349 0l-6.287 6.287a125.23 125.23 0 0 0-14.041-5.602v-9.106c0-8.728-7.075-15.803-15.803-15.803h-47.412c-8.728 0-15.803 7.075-15.803 15.803v9.106a124.85 124.85 0 0 0-14.041 5.602l-6.287-6.287c-6.172-6.172-16.177-6.172-22.349 0l-33.526 33.526c-6.172 6.172-6.172 16.178 0 22.349l4.875 4.875a125.267 125.267 0 0 0-6.959 15.453h-6.337C7.075 330.556 0 337.631 0 346.359v47.412c0 8.728 7.075 15.803 15.803 15.803h3.5a124.854 124.854 0 0 0 6.936 18.312l-2.016 2.016c-6.172 6.171-6.172 16.177 0 22.349l33.526 33.526c6.172 6.172 16.177 6.172 22.349 0l.603-.603a125.036 125.036 0 0 0 19.725 8.462v.562c0 8.728 7.075 15.803 15.803 15.803h47.412c8.728 0 15.803-7.075 15.803-15.803v-.562a125.076 125.076 0 0 0 19.725-8.462l.603.603c6.172 6.172 16.177 6.172 22.349 0l33.526-33.526c6.172-6.172 6.172-16.177 0-22.349l-2.016-2.016a125.01 125.01 0 0 0 6.936-18.312h3.501c8.728 0 15.803-7.075 15.803-15.803v-47.412c-.001-8.728-7.076-15.803-15.804-15.803zm-124.132 94.296c-27.901 0-50.515-22.614-50.515-50.515 0-27.902 22.614-50.515 50.515-50.515s50.515 22.614 50.515 50.515-22.614 50.515-50.515 50.515z"/><path fill="url(#g)" d="M204.972 309.299c-35.923-35.923-94.152-35.923-130.074 0s-35.923 94.152 0 130.074 94.152 35.923 130.074 0 35.923-94.151 0-130.074zM104.215 410.056c-19.729-19.729-19.729-51.71 0-71.439s51.71-19.729 71.44 0c19.729 19.729 19.729 51.71 0 71.439-19.73 19.73-51.71 19.73-71.44 0z"/></svg>