<svg fill="none" height="177" viewBox="0 0 177 177" width="177" xmlns="http://www.w3.org/2000/svg"><path d="m11.0625 5.53125h121.6875c6.109 0 11.062 4.95325 11.062 11.06255v149.3442c0 6.109-4.953 11.062-11.062 11.062h-121.6875c-6.10922 0-11.0625-4.953-11.0625-11.062v-149.3442c0-6.1093 4.95328-11.06255 11.0625-11.06255z" fill="#ecce93"/><path d="m11.0625 129.509v-112.9152h121.6875v149.3442h-85.259z" fill="#efefef"/><path d="m47.491 129.509v36.429l-36.4285-36.429z" fill="#e76e54"/><path d="m44.25 22.125v-22.125h55.3125v22.125c0 6.1092-4.9533 11.0625-11.0625 11.0625h-33.1875c-6.1092 0-11.0625-4.9533-11.0625-11.0625z" fill="#e76e54"/><path d="m177 127.219c0 27.493-22.288 49.781-49.781 49.781-27.4931 0-49.7815-22.288-49.7815-49.781 0-27.4931 22.2884-49.7815 49.7815-49.7815 27.493 0 49.781 22.2884 49.781 49.7815z" fill="#48c8ef"/><path d="m115.812 148.531-10.72-10.725c-2.159-2.161-2.159-5.662 0-7.822 2.159-2.159 5.661-2.159 7.822 0l3.584 3.579 25.051-20.88c2.347-1.958 5.838-1.641 7.793.708 1.958 2.347 1.641 5.837-.707 7.793z" fill="#fff"/><g fill="#77959e"><path d="m60.8438 44.25h44.2502c3.054 0 5.531 2.4766 5.531 5.5312 0 3.0547-2.477 5.5313-5.531 5.5313h-44.2502c-3.0547 0-5.5313-2.4766-5.5313-5.5313 0-3.0546 2.4766-5.5312 5.5313-5.5312z"/><path d="m33.1875 44.25h11.0625v11.0625h-11.0625z"/><path d="m33.1875 66.375h11.0625v11.0625h-11.0625z"/><path d="m33.1875 88.5h11.0625v11.0625h-11.0625z"/><path d="m33.1875 110.625h11.0625v11.063h-11.0625z"/><path d="m60.8438 66.375h33.1874c3.0547 0 5.5313 2.4766 5.5313 5.5312 0 3.0547-2.4766 5.5313-5.5313 5.5313h-33.1874c-3.0547 0-5.5313-2.4766-5.5313-5.5313 0-3.0546 2.4766-5.5312 5.5313-5.5312z"/><path d="m60.8438 88.5h11.0624c3.0547 0 5.5313 2.4766 5.5313 5.5312 0 3.0547-2.4766 5.5313-5.5313 5.5313h-11.0624c-3.0547 0-5.5313-2.4766-5.5313-5.5313 0-3.0546 2.4766-5.5312 5.5313-5.5312z"/></g></svg>