<svg xmlns="http://www.w3.org/2000/svg" width="512" height="512" viewBox="0 0 64 64"><path fill="#299cfc" d="M32 3L22 15h5v46h10V15h5z"/><path fill="#0080ff" d="M37 22.91V61H27V15h-5L32 3v14a5.99 5.99 0 0 0 5 5.91z"/><path fill="#1ec0ff" d="M61 31L49 21v5H39a12 12 0 0 0-12 12v23h10V40a4 4 0 0 1 4-4h8v5z"/><path fill="#299cfc" d="M49 41v-5h-8a4 4 0 0 0-4 4v21H27V38a11.99 11.99 0 0 1 4.4-9.29A7.992 7.992 0 0 0 37 31h24z"/><path fill="#a3daff" d="M18 37v-9h5L13 16 3 28h5v11a12 12 0 0 0 12 12h3a4 4 0 0 1 4 4v6h10v-8a12 12 0 0 0-12-12h-3a4 4 0 0 1-4-4z"/><path fill="#ff6464" d="M55 45a6 6 0 0 0-6 6c0 5 6 10 6 10s6-5 6-10a6 6 0 0 0-6-6zm0 8a2 2 0 1 1 2-2 2 2 0 0 1-2 2z"/><path fill="#db3056" d="M52.87 53.32c-1.36-2.09-2.35-4.61-1.62-7A5.994 5.994 0 0 0 49 51c0 5 6 10 6 10a21.49 21.49 0 0 0 5.21-6.67 4.954 4.954 0 0 1-7.34-1.01z"/><path fill="#1ec0ff" d="M37 56v5H27v-6a4 4 0 0 0-4-4h-3A12 12 0 0 1 8 39V28H3l10-12v22a8 8 0 0 0 8 8h6a5 5 0 0 1 5 5 4.985 4.985 0 0 0 5 5z"/><g fill="#464a51"><path d="M49 27a1 1 0 001-1v-2.865L59.438 31 50 38.865V36a1 1 0 00-1-1h-8a5.006 5.006 0 00-5 5v3a1 1 0 002 0v-3a3 3 0 013-3h7v4a1 1 0 001.64.769l12-10a1 1 0 000-1.538l-12-10A1 1 0 0048 21v5a1 1 0 001 1zM8 34a1 1 0 00-1 1v4a13.015 13.015 0 0013 13h3a3 3 0 013 3v2a1 1 0 002 0v-2a5.006 5.006 0 00-5-5h-3A11.013 11.013 0 019 39v-4a1 1 0 00-1-1zM52 51a3 3 0 103-3 3 3 0 00-3 3zm4 0a1 1 0 11-1-1 1 1 0 011 1z"/><path d="M58.909 46.345a1 1 0 0 0-.111 1.409A5 5 0 0 1 60 51c0 3.548-3.521 7.253-5 8.652-1.479-1.4-5-5.1-5-8.652a5.006 5.006 0 0 1 5-5 4.924 4.924 0 0 1 .913.088 1 1 0 1 0 .362-1.967A6.981 6.981 0 0 0 48 51c0 3.561 2.642 7 4.523 9H38v-7a13.014 13.014 0 0 0-10-12.637V38a11.013 11.013 0 0 1 11-11h6a1 1 0 0 0 0-2h-6a12.7 12.7 0 0 0-1 .051V16h4a1 1 0 0 0 .768-1.641l-10-12a1.035 1.035 0 0 0-1.536 0l-10 12A1 1 0 0 0 22 16h4v12a1 1 0 0 0 2 0V15a1 1 0 0 0-1-1h-2.865L32 4.563 39.865 14H37a1 1 0 0 0-1 1v10.363A13.014 13.014 0 0 0 26 38v2.051A12.7 12.7 0 0 0 25 40h-3a3 3 0 0 1-3-3v-8h4a1 1 0 0 0 .768-1.641l-10-12a1.035 1.035 0 0 0-1.536 0l-10 12A1 1 0 0 0 3 29h4v2a1 1 0 0 0 2 0v-3a1 1 0 0 0-1-1H5.135L13 17.563 20.865 27H18a1 1 0 0 0-1 1v9a5.006 5.006 0 0 0 5 5h3a11.013 11.013 0 0 1 11 11v7H6a1 1 0 0 0 0 2h49a1 1 0 0 0 .64-.231C55.9 61.552 62 56.406 62 51a7 7 0 0 0-1.681-4.545 1 1 0 0 0-1.41-.11z"/></g></svg>