<svg enable-background="new 0 0 512 512" height="512" viewBox="0 0 512 512" width="512" xmlns="http://www.w3.org/2000/svg"><path d="m331 461h-20v-50c0-5.522-4.477-10-10-10h-100c-5.523 0-10 4.478-10 10v50h-20c-5.523 0-10 4.478-10 10s4.477 10 10 10h160c5.523 0 10-4.478 10-10s-4.477-10-10-10zm-120-40h80v40h-80z" fill="#414440"/><path d="m141 41v60 30 230h220v-230-30-60z" fill="#ecf0f1"/><path d="m66 41c8.29 0 15 6.72 15 15s-6.71 15-15 15c-8.28 0-15-6.72-15-15s6.72-15 15-15z" fill="#30c9b0"/><path d="m421 31c11.05 0 20 8.95 20 20s-8.95 20-20 20c-11.04 0-20-8.95-20-20s8.96-20 20-20z" fill="#30c9b0"/><path d="m171 201h70v50h-70z" fill="#3d4966"/><path d="m171 131h160v40h-160z" fill="#3d4966"/><path d="m361 131h80v230h-80z" fill="#ff4f4f"/><path d="m61 131h80v230h-80z" fill="#ff4f4f"/><path d="m445.33 101h-18.35-65.98v30h80v230h-80-220-80v-230h80v-30h-84.33c-14.18 0-25.67 11.49-25.67 25.67v268.66c0 14.18 11.49 25.67 25.67 25.67h144.33 100 144.34c14.17 0 25.66-11.49 25.66-25.67v-124.33-30-114.33c0-14.18-11.49-25.67-25.67-25.67z" fill="#5a5a5a"/><path d="m471 61c5.52 0 10 4.48 10 10s-4.48 10-10 10-10-4.48-10-10 4.48-10 10-10z" fill="#45ccff"/><path d="m258.07 383.93c1.81 1.811 2.93 4.311 2.93 7.07s-1.12 5.26-2.93 7.07c-1.811 1.81-4.311 2.93-7.07 2.93-5.52 0-10-4.48-10-10 0-2.76 1.12-5.26 2.93-7.07s4.31-2.93 7.07-2.93 5.26 1.12 7.07 2.93z" fill="#414440"/><g fill="#5a5a5a"><path d="m326.13 92.44c-.54-1.18-1.31-2.19-2.3-3.02-.99-.82-2.19-1.52-3.62-2.08-1.42-.55-3.021-1.07-4.79-1.54-1.29-.34-2.41-.64-3.391-.91-.97-.27-1.779-.57-2.42-.89-.64-.32-1.129-.68-1.459-1.09s-.49-.91-.49-1.52c0-1.99 1.529-2.99 4.58-2.99 1.109 0 2.22.15 3.34.46 1.109.3 2.13.65 3.07 1.06.939.41 1.719.79 2.34 1.17.629.37.99.62 1.1.76l3.75-6.9c-.83-.47-1.75-.94-2.74-1.42-.99-.47-2.05-.89-3.199-1.26-1.141-.37-2.341-.68-3.591-.92-1.25-.23-2.52-.35-3.81-.35-1.84 0-3.58.25-5.23.76s-3.1 1.26-4.35 2.26c-1.25.99-2.24 2.22-2.971 3.67-.729 1.45-1.1 3.13-1.1 5.02 0 1.35.2 2.53.6 3.55.4 1.01 1.011 1.9 1.82 2.68.82.78 1.85 1.46 3.11 2.05 1.25.6 2.72 1.14 4.42 1.65 1.29.37 2.479.71 3.569 1.01 1.101.31 2.041.64 2.841.99.8.36 1.42.76 1.88 1.19.45.44.67 1 .67 1.68 0 1.79-1.51 2.68-4.529 2.68-1.421 0-2.83-.18-4.221-.55-1.391-.38-2.65-.8-3.779-1.27-1.121-.47-2.07-.95-2.83-1.42-.771-.47-1.221-.79-1.36-.96l-3.75 7.24c1.079.71 2.25 1.34 3.52 1.88 1.261.54 2.58 1 3.931 1.39 1.35.39 2.74.69 4.17.89 1.42.2 2.81.3 4.17.3 1.77 0 3.49-.19 5.15-.58 1.67-.39 3.149-1.01 4.43-1.87 1.289-.87 2.32-2 3.1-3.4s1.17-3.12 1.17-5.14c-.001-1.66-.271-3.08-.801-4.26z"/><path d="m288.22 71.3-9.271 26.46-3.75-9.68 6.201-16.73h-7.92l-3.75 11.51-3.75-11.51h-7.871l6.101 16.73-3.65 9.68-9.32-26.46h-9.28l14.75 35.99h7.18l5.84-14.09 5.889 14.09h7.131l14.8-35.99z"/><path d="m223.15 92.34h14.59v-6.74h-14.59v-7h16.99v-7.3h-25.53v35.99h26v-7.3h-17.46z"/><path d="m198.98 92.44-17.24-21.14h-6.67v35.99h8.54v-20.58l17.04 20.58h6.88v-35.99h-8.55z"/></g><path d="m111 61c5.52 0 10 4.48 10 10s-4.48 10-10 10-10-4.48-10-10 4.48-10 10-10z" fill="#45ccff"/><path d="m421 461h-80c-5.523 0-10-4.478-10-10s4.477-10 10-10h80c5.523 0 10 4.478 10 10s-4.477 10-10 10z" fill="#5a5a5a"/><path d="m161 461h-80c-5.523 0-10-4.478-10-10s4.477-10 10-10h80c5.523 0 10 4.478 10 10s-4.477 10-10 10z" fill="#5a5a5a"/><g fill="#bfc1c1"><path d="m271 251c5.52 0 10-4.48 10-10s-4.48-10-10-10-10 4.48-10 10 4.48 10 10 10z"/><path d="m271 221h60c5.523 0 10-4.477 10-10s-4.477-10-10-10h-60c-5.523 0-10 4.477-10 10s4.477 10 10 10z"/><path d="m331 231h-30c-5.523 0-10 4.477-10 10s4.477 10 10 10h30c5.523 0 10-4.477 10-10s-4.477-10-10-10z"/><path d="m331 281h-160c-5.523 0-10 4.478-10 10s4.477 10 10 10h160c5.523 0 10-4.478 10-10s-4.477-10-10-10z"/><path d="m331 311h-160c-5.523 0-10 4.478-10 10s4.477 10 10 10h160c5.523 0 10-4.478 10-10s-4.477-10-10-10z"/></g></svg>