<svg height="512" viewBox="0 0 512 512" width="512" xmlns="http://www.w3.org/2000/svg" xmlns:xlink="http://www.w3.org/1999/xlink"><clipPath id="a"><path d="m0 0h512v512h-512z"/></clipPath><g clip-path="url(#a)"><path d="m0 0h512v512h-512z" fill="#fff"/><g fill="#537796"><path d="m560.077 227.688-29.033-29.036v21.756h-86.253l-36.791-74.782-56.812 114.074-109.475-189.592-77.528 159.017h-66.528a195.346 195.346 0 0 1 21.472-47.557v-4.713h-14.166a210.051 210.051 0 0 0 -30.1 108.827c0 1.865.054 3.717.115 5.566h14.531q-.086-2.77-.091-5.566a198.441 198.441 0 0 1 4.48-42h79.386l69.516-142.582 109.335 189.351 55.783-112.018 27.81 56.531h95.316v21.756z" transform="translate(-48.078 -64.108)"/><path d="m173.693 215.55c7.54 0 14.8 5.811 19.423 15.539l12.894-6.123c-7.049-14.837-19.129-23.694-32.317-23.694-15.8 0-29.057 12.295-35.014 30.319h-11.468v14.277h8.489a65.828 65.828 0 0 0 0 14.592h-8.484v14.274h11.468c5.957 18.027 19.214 30.319 35.014 30.319 13.191 0 25.271-8.859 32.317-23.694l-12.894-6.126c-4.622 9.731-11.883 15.542-19.423 15.542-7.973 0-15.176-6.423-19.6-16.042h22.402v-14.271h-26.452a55.547 55.547 0 0 1 0-14.592h26.452v-14.278h-22.405c4.419-9.619 11.626-16.042 19.598-16.042z" transform="translate(58.022 201.733)"/><path d="m123.829 221.472v-14.277h-17.508v-14.595h17.507v-14.272h-15.37l23.892-23.892-10.1-10.1-23.07 23.075-23.07-23.07-10.1 10.1 23.894 23.892h-15.367v14.267h17.508v14.59h-17.508v14.277h17.508v13.286h14.277v-13.281z" transform="translate(-66.013 86.345)"/><path d="m230.206 199.826h22.664v-14.277h-22.664v-13.173l-.1-1.168c-.965-5.805-.173-10.158 2.355-12.93 4.271-4.691 13.206-5.136 16.248-4.928l1.141-14.232c-1.828-.142-18.142-1.123-27.873 9.468-5.566 6.057-7.6 14.25-6.051 24.356v12.606h-12.346v14.277h12.349v20.406h-12.349v14.279h59.128v-14.278h-32.5z" transform="translate(212.804 75.584)"/><path d="m178.948 335.019v-197.219h-39.427v184.531a38.346 38.346 0 0 1 9.223-1.135c11.332.004 21.91 4.982 30.204 13.823z" transform="translate(82.971 73.084)"/><path d="m296.375 230.5a196.8 196.8 0 0 1 -25.531 35.268v-120.455h-39.423v153.781a198.389 198.389 0 0 1 -21.865 12.152v-126.509h-39.424v140.421c-5.091 1.2-10.264 2.137-15.473 2.936a62.64 62.64 0 0 1 3.6 6.547l3.372 7.095a212.35 212.35 0 0 0 151.337-111.236z" transform="translate(113.653 88.315)"/><path d="m233.588 372.522v-252.759h-39.427v246.654a196.954 196.954 0 0 1 -21.862-11.06v-158.257h-39.427v128.029a198.571 198.571 0 0 1 -34.13-45.12h-16.42a212.676 212.676 0 0 0 129.161 108.062h12.217a59.112 59.112 0 0 1 9.888-15.549z" transform="translate(-32.958 36.531)"/><path d="m110.09 176.752h14.277v-16.444h26.463v-42.088h-26.463v-13.53h26.463v-14.277h-26.463v-16.444h-14.277v16.444h-26.463v42.087h26.463v13.53h-26.463v14.277h26.463zm-12.19-58.532v-13.53h12.19v13.53zm26.467 14.28h12.186v13.53h-12.186z" transform="translate(-30.313 -56.283)"/></g></g></svg>