<svg height="512" viewBox="0 0 64 64" width="512" xmlns="http://www.w3.org/2000/svg"><path d="m32 3-10 12h5v46h10v-46h5z" fill="#299cfc"/><path d="m37 22.91v38.09h-10v-46h-5l10-12v14a5.99 5.99 0 0 0 5 5.91z" fill="#0080ff"/><path d="m61 31-12-10v5h-10a12 12 0 0 0 -12 12v23h10v-21a4 4 0 0 1 4-4h8v5z" fill="#1ec0ff"/><path d="m49 41v-5h-8a4 4 0 0 0 -4 4v21h-10v-23a11.99 11.99 0 0 1 4.4-9.29 7.992 7.992 0 0 0 5.6 2.29h24z" fill="#299cfc"/><path d="m18 37v-9h5l-10-12-10 12h5v11a12 12 0 0 0 12 12h3a4 4 0 0 1 4 4v6h10v-8a12 12 0 0 0 -12-12h-3a4 4 0 0 1 -4-4z" fill="#a3daff"/><path d="m55 45a6 6 0 0 0 -6 6c0 5 6 10 6 10s6-5 6-10a6 6 0 0 0 -6-6zm0 8a2 2 0 1 1 2-2 2 2 0 0 1 -2 2z" fill="#ff6464"/><path d="m52.87 53.32c-1.36-2.09-2.35-4.61-1.62-7a5.994 5.994 0 0 0 -2.25 4.68c0 5 6 10 6 10a21.49 21.49 0 0 0 5.21-6.67 4.954 4.954 0 0 1 -7.34-1.01z" fill="#db3056"/><path d="m37 56v5h-10v-6a4 4 0 0 0 -4-4h-3a12 12 0 0 1 -12-12v-11h-5l10-12v22a8 8 0 0 0 8 8h6a5 5 0 0 1 5 5 4.985 4.985 0 0 0 5 5z" fill="#1ec0ff"/><g fill="#464a51"><path d="m49 27a1 1 0 0 0 1-1v-2.865l9.438 7.865-9.438 7.865v-2.865a1 1 0 0 0 -1-1h-8a5.006 5.006 0 0 0 -5 5v3a1 1 0 0 0 2 0v-3a3 3 0 0 1 3-3h7v4a1 1 0 0 0 1.64.769l12-10a1 1 0 0 0 0-1.538l-12-10a1 1 0 0 0 -1.64.769v5a1 1 0 0 0 1 1z"/><path d="m8 34a1 1 0 0 0 -1 1v4a13.015 13.015 0 0 0 13 13h3a3 3 0 0 1 3 3v2a1 1 0 0 0 2 0v-2a5.006 5.006 0 0 0 -5-5h-3a11.013 11.013 0 0 1 -11-11v-4a1 1 0 0 0 -1-1z"/><path d="m52 51a3 3 0 1 0 3-3 3 3 0 0 0 -3 3zm4 0a1 1 0 1 1 -1-1 1 1 0 0 1 1 1z"/><path d="m58.909 46.345a1 1 0 0 0 -.111 1.409 5 5 0 0 1 1.202 3.246c0 3.548-3.521 7.253-5 8.652-1.479-1.4-5-5.1-5-8.652a5.006 5.006 0 0 1 5-5 4.924 4.924 0 0 1 .913.088 1 1 0 1 0 .362-1.967 6.981 6.981 0 0 0 -8.275 6.879c0 3.561 2.642 7 4.523 9h-14.523v-7a13.014 13.014 0 0 0 -10-12.637v-2.363a11.013 11.013 0 0 1 11-11h6a1 1 0 0 0 0-2h-6c-.338 0-.669.025-1 .051v-9.051h4a1 1 0 0 0 .768-1.641l-10-12a1.035 1.035 0 0 0 -1.536 0l-10 12a1 1 0 0 0 .768 1.641h4v12a1 1 0 0 0 2 0v-13a1 1 0 0 0 -1-1h-2.865l7.865-9.437 7.865 9.437h-2.865a1 1 0 0 0 -1 1v10.363a13.014 13.014 0 0 0 -10 12.637v2.051c-.331-.026-.662-.051-1-.051h-3a3 3 0 0 1 -3-3v-8h4a1 1 0 0 0 .768-1.641l-10-12a1.035 1.035 0 0 0 -1.536 0l-10 12a1 1 0 0 0 .768 1.641h4v2a1 1 0 0 0 2 0v-3a1 1 0 0 0 -1-1h-2.865l7.865-9.437 7.865 9.437h-2.865a1 1 0 0 0 -1 1v9a5.006 5.006 0 0 0 5 5h3a11.013 11.013 0 0 1 11 11v7h-30a1 1 0 0 0 0 2h49a1 1 0 0 0 .64-.231c.26-.217 6.36-5.363 6.36-10.769a7 7 0 0 0 -1.681-4.545 1 1 0 0 0 -1.41-.11z"/></g></svg>