<svg height="512" viewBox="0 0 512 512" width="512" xmlns="http://www.w3.org/2000/svg" xmlns:xlink="http://www.w3.org/1999/xlink"><clipPath id="a"><path d="m0 0h512v512h-512z"/></clipPath><g clip-path="url(#a)"><g fill="#537796" transform="translate(-46.801 -73.504)"><path d="m538.2 317.008v-241.775h-212.345v241.775h20.419v53.48a18.1 18.1 0 1 0 9.983 0v-53.48h16.8v115.885a18.1 18.1 0 1 0 9.983 0v-115.885h16.8v67.092a18.1 18.1 0 1 0 9.983 0v-67.092h16.8v29.222a18.1 18.1 0 1 0 9.983 0v-29.222h16.8v155.292a25.225 25.225 0 0 1 -25.194 25.194h-140.024a18.149 18.149 0 0 0 -12.393-12.39v-65.73a18.092 18.092 0 1 0 -22.376-22.374h-65.728a18.149 18.149 0 0 0 -12.946-12.536v-34.746h53.648a26.852 26.852 0 0 0 26.82-26.823v-176.774l-3.762-3.762h-114.451l-6.315-33.854a18.451 18.451 0 1 0 -26.3-13.16 18.453 18.453 0 0 0 15.676 14.857l6 32.154h-56.043l-3.218 5.716 28.871 47.547v127.281a26.854 26.854 0 0 0 26.82 26.823h43.374v34.743a18.078 18.078 0 0 0 -.55 34.912v32.641l-22.955-4.746a18.095 18.095 0 1 0 -26.446 17.39l-13.309 64.356a18.095 18.095 0 1 0 17.395 26.442l64.359 13.309a18.095 18.095 0 1 0 26.446-17.39l9.076-43.9h33.543a18.082 18.082 0 0 0 34.769 0h140.013a35.215 35.215 0 0 0 35.177-35.18v-155.292h16.8v106.418a18.1 18.1 0 1 0 9.983 0v-106.418h16.8v49.435a18.1 18.1 0 1 0 9.983 0v-49.435zm-178.817 70.865a8.118 8.118 0 1 1 -8.118-8.118 8.124 8.124 0 0 1 8.118 8.118zm26.783 62.4a8.119 8.119 0 1 1 -8.12-8.118 8.128 8.128 0 0 1 8.12 8.123zm26.777-48.794a8.116 8.116 0 1 1 -8.118-8.117 8.124 8.124 0 0 1 8.118 8.122zm26.783-37.867a8.118 8.118 0 1 1 -8.118-8.12 8.128 8.128 0 0 1 8.118 8.125zm-327.115-269.802a10.091 10.091 0 1 1 11.774 8.069 10.1 10.1 0 0 1 -11.774-8.069zm135.078 216.872h-57.1v-7.524h57.1zm0-24.156h-38.811v-7.526h38.811zm0-136.643v56.652h-57.1v7.524h57.1v16.631h-38.811v7.527h38.811v16.629h-38.811v7.527h38.811v3.813h-87.589l-21.7-116.3zm-145.038 42.732-25.951-42.732h50.762l21.7 116.3h-45.962v-71.62zm168.149 201.256a8.118 8.118 0 1 1 -8.115 8.117 8.126 8.126 0 0 1 8.115-8.117zm-108.614 8.117a8.118 8.118 0 1 1 8.118 8.118 8.128 8.128 0 0 1 -8.115-8.117zm-45.81 45a8.115 8.115 0 0 1 7.929-6.475 8.119 8.119 0 0 1 7.966 9.763 8.116 8.116 0 1 1 -15.9-3.289zm-7.949 106.84a8.119 8.119 0 1 1 3.491-5.14 8.059 8.059 0 0 1 -3.488 5.144zm101.909 15.211a8.12 8.12 0 1 1 -6.306-9.589 8.125 8.125 0 0 1 6.308 9.593zm-9.318-19.675a18.186 18.186 0 0 0 -14.644 9.623l-64.367-13.309a18.158 18.158 0 0 0 -9.626-14.646l13.32-64.421a18.072 18.072 0 0 0 14.584-9.581l25.029 5.174v22.9a18.091 18.091 0 1 0 22.376 22.373h21.991zm20.074-72.433a8.118 8.118 0 1 1 9.6-6.306 8.076 8.076 0 0 1 -9.598 6.31zm-16.389-6.58a18.154 18.154 0 0 0 9.629 14.649l-2.584 12.5h-24.057a18.149 18.149 0 0 0 -12.391-12.4v-20.83zm-34.4 24.016a8.116 8.116 0 1 1 -8.118 8.115 8.125 8.125 0 0 1 8.122-8.111zm53.811-7.4a18.066 18.066 0 1 0 -17.4-26.395l-31.414-6.492v-34.707a18.153 18.153 0 0 0 12.393-12.393h65.728a18.158 18.158 0 0 0 12.393 12.393v65.727a18.154 18.154 0 0 0 -12.393 12.39h-31.48zm46.686 23.633a8.116 8.116 0 1 1 8.118-8.118 8.124 8.124 0 0 1 -8.118 8.118zm222.485-69.795a8.116 8.116 0 1 1 -8.118-8.115 8.124 8.124 0 0 1 8.122 8.118zm26.783-56.98a8.118 8.118 0 1 1 -8.118-8.117 8.125 8.125 0 0 1 8.121 8.12zm-20.425-235.768h13.109v13.109h-13.109zm0 27.673h13.109v13.109h-13.109zm0 27.673h13.109v13.109h-13.109zm-60.337-94.669h13.109v13.106h-13.108zm-27.673 0h13.109v13.106h-13.108zm-27.673 0h13.11v13.106h-13.109zm-19.554 135.45h-13.106v-13.109h13.109zm0-27.673h-13.106v-13.111h13.109zm0-27.673h-13.106v-13.108h13.109zm0-27.673h-13.106v-13.108h13.109zm32.664 122.344h-13.109v-13.109h13.109zm27.673 0h-13.109v-13.109h13.109zm27.673 0h-13.109v-13.109h13.109zm27.673 0h-13.11v-13.109h13.109zm0-32.661h-96.128v-109.454h96.127zm0-129.008h-13.11v-13.107h13.109zm19.555 109.236h13.109v13.109h-13.11z"/><path d="m0 0h49.52v63.017h-49.52z" transform="translate(407.265 164.612)"/><path d="m261.963 100.457h-81.381v91.475h81.381zm-8.557 82.918h-64.267v-74.361h64.267z" transform="translate(210.753 49.925)"/></g></g></svg>