<svg height="512pt" viewBox="0 -1 512.001 512" width="512pt" xmlns="http://www.w3.org/2000/svg"><path d="m76.035156 89.8125h185.582032c8.261718 0 14.960937-6.699219 14.960937-14.964844s-6.699219-14.964844-14.960937-14.964844h-185.582032c-8.265625 0-14.964844 6.699219-14.964844 14.964844s6.699219 14.964844 14.964844 14.964844zm0 0"/><path d="m76.035156 149.671875h185.582032c8.261718 0 14.960937-6.699219 14.960937-14.964844s-6.699219-14.964843-14.960937-14.964843h-185.582032c-8.265625 0-14.964844 6.699218-14.964844 14.964843s6.699219 14.964844 14.964844 14.964844zm0 0"/><path d="m175.800781 179.601562h-99.765625c-8.265625 0-14.964844 6.699219-14.964844 14.964844 0 8.261719 6.699219 14.964844 14.964844 14.964844h99.765625c8.261719 0 14.960938-6.703125 14.960938-14.964844 0-8.265625-6.699219-14.964844-14.960938-14.964844zm0 0"/><path d="m497.035156 179.601562h-157.832031v-164.636718c0-8.265625-6.703125-14.964844-14.964844-14.964844h-309.273437c-8.265625 0-14.964844 6.699219-14.964844 14.964844v240.949218c0 8.265626 6.699219 14.964844 14.964844 14.964844h34.917968v63.695313c0 6.238281 3.871094 11.820312 9.707032 14.011719 1.714844.644531 3.492187.953124 5.253906.953124 4.238281 0 8.378906-1.800781 11.277344-5.121093l64.210937-73.539063h80.359375v136.316406c0 8.265626 6.703125 14.964844 14.964844 14.964844h135.476562l64.191407 82.839844c2.890625 3.730469 7.292969 5.800781 11.832031 5.800781 1.617188 0 3.25-.265625 4.839844-.808593 6.054687-2.070313 10.121094-7.761719 10.121094-14.160157v-73.671875h34.917968c8.265625 0 14.964844-6.699218 14.964844-14.964844v-212.628906c0-8.265625-6.699219-14.964844-14.964844-14.964844zm-363.5 61.347657c-4.324218 0-8.429687 1.867187-11.273437 5.121093l-42.449219 48.617188v-38.773438c0-8.265624-6.699219-14.964843-14.964844-14.964843h-34.917968v-211.019531h279.34375v149.671874h-73.617188c-8.261719 0-14.964844 6.699219-14.964844 14.964844v46.382813zm348.535156 151.28125h-34.917968c-8.265625 0-14.964844 6.699219-14.964844 14.964843v44.894532l-41.890625-54.058594c-2.835937-3.660156-7.203125-5.800781-11.828125-5.800781h-127.847656v-182.699219h231.449218zm0 0"/><path d="m332.871094 349.800781c2.6875 3.636719 6.878906 5.859375 11.394531 6.046875.210937.011719.421875.015625.632813.015625 4.289062 0 8.382812-1.839843 11.230468-5.074219l73.53125-83.507812c5.460938-6.203125 4.859375-15.65625-1.34375-21.121094-6.203125-5.460937-15.65625-4.859375-21.121094 1.34375l-61.289062 69.605469-17.414062-23.523437c-4.917969-6.644532-14.289063-8.042969-20.929688-3.125-6.644531 4.917968-8.042969 14.289062-3.125 20.929687zm0 0"/></svg>