<svg fill="none" height="235" viewBox="0 0 235 235" width="235" xmlns="http://www.w3.org/2000/svg" xmlns:xlink="http://www.w3.org/1999/xlink"><clipPath id="a"><path d="m0 0h235v235h-235z"/></clipPath><g clip-path="url(#a)"><path d="m187.329 140.111v-137.12402h-169.9696v141.02902c0 10.147 8.2276 18.375 18.3755 18.375h173.8751c-12.305 0-22.281-9.976-22.281-22.28z" fill="#f46262"/><path d="m209.609 162.391c-12.305 0-22.281-9.976-22.281-22.28v-36.061h44.561v36.061c0 12.304-9.976 22.28-22.28 22.28z" fill="#e4edfb"/><path d="m65.7667 191.271-35.4512 35.299c-3.0175 3.023-6.978 4.534-10.9367 4.534-3.9606 0-7.9193-1.511-10.94218-4.534-6.0457-6.04-6.0457-15.84 0-21.881l34.42568-34.278c5.4666 8.954 13.4217 16.226 22.9044 20.86z" fill="#e4edfb"/><path d="m158.849 141.719c0-37.995-30.912-68.9071-68.9069-68.9071-37.9954 0-68.9069 30.9121-68.9069 68.9071 0 5.255.5934 10.374 1.714 15.297 3.324 3.32 7.9157 5.375 12.986 5.375h119.9438c2.057-6.53 3.17-13.474 3.17-20.672z" fill="#ef4848"/><path d="m65.7676 191.271-10.1981 10.157c-9.0542-5.237-16.8175-12.468-22.675-21.095l9.9686-9.922c5.4666 8.954 13.4217 16.226 22.9045 20.86z" fill="#bcc8d9"/><path d="m145.066 141.719c0 30.444-24.679 55.125-55.1247 55.125-30.4455 0-55.1249-24.681-55.1249-55.125 0-30.446 24.6794-55.1268 55.1249-55.1268 30.4457 0 55.1247 24.6808 55.1247 55.1268z" fill="#e4edfb"/><path d="m126.692 141.719c0 20.296-16.454 36.749-36.7495 36.749-20.2958 0-36.7511-16.453-36.7511-36.749 0-20.298 16.4553-36.751 36.7511-36.751 20.2955 0 36.7495 16.453 36.7495 36.751z" fill="#92d8ff"/><path d="m201.11 153.891v-49.841h-13.782v36.061c0 12.304 9.976 22.28 22.281 22.28-4.687 0-8.499-3.813-8.499-8.5z" fill="#bcc8d9"/><path d="m89.9425 118.75c17.9395 0 32.8695 12.857 36.0945 29.859.425-2.234.655-4.534.655-6.89 0-20.298-16.454-36.751-36.7495-36.751-20.2975 0-36.7511 16.453-36.7511 36.751 0 2.356.2313 4.656.6562 6.89 3.2255-17.002 18.155-29.859 36.0949-29.859z" fill="#4abef0"/><g fill="#fff"><path d="m31.1406 13.3231h6.8902v6.8902h-6.8902z"/><path d="m165.738 13.3231h6.89v6.8902h-6.89z"/><path d="m172.628 144.475h-6.89v-6.891h6.89zm0-13.783h-6.89v-6.89h6.89zm0-13.78h-6.89v-6.89h6.89zm0-13.782h-6.89v-6.8901h6.89z"/><path d="m48.762 72.1235c-11.1107 0-20.1487-9.0399-20.1487-20.1506h6.8901c0 7.3115 5.9471 13.2586 13.2586 13.2586s13.2604-5.9471 13.2604-13.2586v-26.9367h6.8901v26.9367c0 11.1107-9.0398 20.1506-20.1505 20.1506z"/><path d="m99.1916 72.1234c-12.6651 0-22.9689-10.3038-22.9689-22.9689v-2.9243c0-12.6651 10.3038-22.969 22.9689-22.969 12.6654 0 22.9694 10.3039 22.9694 22.969v2.9243c0 12.6651-10.304 22.9689-22.9694 22.9689zm0-41.9702c-8.8659 0-16.077 7.2129-16.077 16.077v2.9243c0 8.8641 7.2111 16.077 16.077 16.077 8.8664 0 16.0784-7.2129 16.0784-16.077v-2.9243c0-8.8641-7.212-16.077-16.0784-16.077z"/><path d="m151.393 51.4512h-22.635v-27.5625h22.635c7.599 0 13.781 6.182 13.781 13.7804 0 7.6001-6.182 13.7821-13.781 13.7821zm-15.743-6.892h15.743c3.799 0 6.89-3.091 6.89-6.8901 0-3.7992-3.091-6.8902-6.89-6.8902h-15.743z"/><path d="m151.393 72.1234h-22.635v-27.5642h22.635c7.599 0 13.781 6.1838 13.781 13.7821 0 7.5984-6.182 13.7821-13.781 13.7821zm-15.743-6.8919h15.743c3.799 0 6.89-3.091 6.89-6.8902s-3.091-6.8901-6.89-6.8901h-15.743z"/><path d="m101.422 126.329h6.892v6.891h-6.892z"/><path d="m107.395 139.652h6.891v6.89h-6.891z"/></g><path d="m130.135 141.719c0-22.164-18.031-40.195-40.1952-40.195-1.1922 0-2.3953.052-3.575.156l.606 6.863c.9789-.086 1.9776-.129 2.969-.129 18.3652 0 33.3052 14.94 33.3052 33.305s-14.94 33.305-33.3052 33.305c-6.2052 0-12.2581-1.718-17.5041-4.965l-3.6271 5.858c6.3361 3.923 13.644 5.997 21.1312 5.997 22.1642 0 40.1952-18.031 40.1952-40.195z" fill="#000"/><path d="m80.8423 109.671-1.8771-6.631c-17.2048 4.874-29.2191 20.778-29.2191 38.677 0 11.251 4.762 22.062 13.0667 29.66l4.6508-5.083c-6.8812-6.296-10.8274-15.254-10.8274-24.575 0-14.833 9.9543-28.011 24.2061-32.048z" fill="#000"/><path d="m20.8042 6.43117h86.1328v-6.890154h-93.0229v88.429984h6.8901z" fill="#000"/><path d="m190.777 100.604v-101.062984h-76.947v6.890154h70.057v133.67983c0 7.431 3.171 14.133 8.227 18.834h-46.187c1.68-5.448 2.587-11.234 2.587-17.226 0-14.738-5.493-28.819-15.465-39.656l-5.071 4.667c8.8 9.56 13.646 21.985 13.646 34.989 0 28.495-23.184 51.679-51.6807 51.679-28.4965 0-51.6788-23.184-51.6788-51.679 0-28.497 23.1823-51.6808 51.6788-51.6808 12.2147 0 24.0677 4.3406 33.3747 12.2208l4.454-5.2589c-10.551-8.9323-23.986-13.8521-37.8287-13.8521-32.2957 0-58.5708 26.273-58.5708 58.571 0 5.951.8947 11.697 2.5531 17.111-7.3814-.896-13.1187-7.196-13.1187-14.814v-49.1549h-6.8902v49.1549c0 12.03 9.7893 21.819 21.8198 21.819h.8355c.6149 1.359 1.2837 2.688 1.9973 3.988l-32.56647 32.43c-3.57328 3.573-5.541892 8.324-5.541892 13.377 0 5.054 1.968612 9.805 5.541892 13.379 3.68801 3.688 8.53427 5.532 13.37867 5.532 4.8427 0 9.6871-1.843 13.3716-5.527l33.7605-33.621c7.1788 3.145 15.1035 4.897 23.4297 4.897 23.7037 0 44.1627-14.155 53.3717-34.455h69.645l.009-.226c12.603-1.651 22.367-12.451 22.367-25.498v-39.507zm-162.8917 123.531c-4.6902 4.692-12.3209 4.691-17.0111 0-2.27165-2.271-3.5231-5.292-3.5231-8.505s1.25145-6.234 3.5177-8.5l31.4476-31.314c4.7315 6.607 10.7629 12.14 17.7409 16.282zm200.5607-84.024c0 10.246-8.228 18.603-18.422 18.823l-.563.008c-10.317-.083-18.684-8.497-18.684-18.831v-32.617h37.669z" fill="#000"/></g></svg>