<svg id="Capa_1" enable-background="new 0 0 512.005 512.005" height="512" viewBox="0 0 512.005 512.005" width="512" xmlns="http://www.w3.org/2000/svg"><g><g><path d="m504.502 38.428v331.18c0 6.62-5.37 12-12 12h-473c-6.63 0-12-5.38-12-12v-331.18c0-6.63 5.37-12 12-12h473c6.63 0 12 5.37 12 12z" fill="#eaf6ff"/><path d="m459.108 216.653h-52.926c-4.418 0-8-3.582-8-8v-54.297c0-19.033 15.43-34.463 34.463-34.463 19.033 0 34.463 15.43 34.463 34.463v54.297c0 4.418-3.582 8-8 8z" fill="#ffe177"/><g><circle cx="221.982" cy="154.356" fill="#ffeee6" r="34.464"/></g><circle cx="322.215" cy="216.653" fill="#ffeee6" r="21.677"/><path d="m423.182 208.653v-54.297c0-14.622 9.112-27.109 21.963-32.115-3.877-1.51-8.089-2.348-12.5-2.348-19.033 0-34.463 15.43-34.463 34.463v54.297c0 4.418 3.582 8 8 8h24.999c-4.417-.001-7.999-3.582-7.999-8z" fill="#ffd15b"/><path d="m467.112 154.598c-.14 19.03-15.68 34.36-34.71 34.22-19.03-.13-34.35-15.67-34.22-34.7.02-2.37.27-4.68.74-6.91 3.31-15.7 17.3-27.43 33.97-27.31 16.5.11 30.2 11.8 33.48 27.31.5 2.38.76 4.86.74 7.39z" fill="#ffeee6"/><path d="m458.55 288.599h-53.052c-2.666 0-4.585-2.558-3.841-5.118l20.549-70.624c.497-1.708 2.062-2.882 3.841-2.882h11.953c1.779 0 3.344 1.175 3.841 2.882l20.549 70.624c.745 2.56-1.175 5.118-3.84 5.118z" fill="#f47c7c"/><path d="m426.657 283.482 17.867-61.404-2.683-9.22c-.497-1.708-2.062-2.882-3.841-2.882h-11.953c-1.779 0-3.344 1.175-3.841 2.882l-20.549 70.624c-.745 2.559 1.175 5.117 3.841 5.117h25c-2.666 0-4.586-2.558-3.841-5.117z" fill="#ee6161"/><path d="m32.502 369.608v-331.18c0-6.63 5.37-12 12-12h-25c-6.63 0-12 5.37-12 12v331.18c0 6.62 5.37 12 12 12h25c-6.63 0-12-5.38-12-12z" fill="#d8ecfe"/><path d="m504.502 322.208v47.4c0 6.62-5.37 12-12 12h-473c-6.63 0-12-5.38-12-12v-47.4z" fill="#6fd7a3"/><path d="m32.502 369.608v-47.4h-25v47.4c0 6.62 5.37 12 12 12h25c-6.63 0-12-5.38-12-12z" fill="#3ec3a4"/><path d="m107.981 248.343h-27.234c-22.091 0-40-17.909-40-40v-80.58c0-22.091 17.909-40 40-40h27.234c22.091 0 40 17.909 40 40v80.58c0 22.091-17.908 40-40 40z" fill="#6fd7a3"/><path d="m65.747 208.343v-80.58c0-22.091 17.909-40 40-40h-25c-22.091 0-40 17.909-40 40v80.58c0 22.091 17.909 40 40 40h25c-22.091 0-40-17.909-40-40z" fill="#3ec3a4"/><path d="m423.182 154.118c.02-2.37.27-4.68.74-6.91 2.417-11.466 10.534-20.808 21.228-24.969-3.803-1.481-7.933-2.312-12.258-2.341-16.67-.12-30.66 11.61-33.97 27.31-.47 2.23-.72 4.54-.74 6.91-.13 19.03 15.19 34.57 34.22 34.7 4.495.033 8.791-.806 12.74-2.345-12.932-5.037-22.06-17.651-21.96-32.355z" fill="#ffdfcf"/><path d="m466.372 147.208h-67.45c3.31-15.7 17.3-27.43 33.97-27.31 16.5.11 30.2 11.8 33.48 27.31z" fill="#ffe177"/><path d="m212.519 154.113c.102-14.538 9.196-26.901 21.966-31.874-3.804-1.482-7.935-2.315-12.26-2.346-19.033-.134-34.572 15.187-34.706 34.22s15.187 34.572 34.22 34.706c4.495.032 8.791-.808 12.74-2.346-12.935-5.039-22.064-17.652-21.96-32.36z" fill="#ffdfcf"/><path d="m325.544 217.16c-.175-7.496 3.476-14.191 9.169-18.217-3.668-2.593-8.17-4.074-13.006-3.961-11.968.28-21.444 10.209-21.164 22.178.28 11.968 10.209 21.444 22.178 21.164 4.473-.105 8.597-1.558 11.994-3.961-5.409-3.825-9.004-10.07-9.171-17.203z" fill="#ffdfcf"/><path d="m445.15 122.239c-3.803-1.481-7.933-2.312-12.258-2.341-16.67-.12-30.66 11.61-33.97 27.31h25c2.418-11.466 10.535-20.808 21.228-24.969z" fill="#ffd15b"/><g><path d="m59.899 415.228 11.358 29.917c.784 2.065 3.094 3.104 5.159 2.32l137.642-52.255c.422-.16.814-.391 1.16-.682l36.885-31.117c2.888-2.437 1.099-7.15-2.679-7.056l-48.242 1.201c-.452.011-.898.099-1.32.259l-137.643 52.254c-2.065.784-3.104 3.094-2.32 5.159z" fill="#f47c7c"/><path d="m68.773 438.6c-.784-2.065.255-4.375 2.32-5.159l137.642-52.255c.422-.16.869-.248 1.32-.259l21.931-.546 20.116-16.971c2.888-2.437 1.099-7.15-2.679-7.056l-48.242 1.201c-.452.011-.898.099-1.32.259l-137.642 52.255c-2.065.784-3.104 3.094-2.32 5.159l11.358 29.917c.001.002.002.003.002.004z" fill="#ee6161"/></g><g><path d="m304.229 450.891 5.991 31.434c.414 2.17 2.508 3.594 4.678 3.18l144.624-27.562c.444-.085.87-.244 1.26-.471l41.727-24.24c3.267-1.898 2.324-6.851-1.413-7.414l-47.718-7.194c-.447-.067-.901-.059-1.345.026l-144.624 27.562c-2.17.415-3.594 2.509-3.18 4.679z" fill="#ffe177"/><path d="m308.909 475.449c-.414-2.17 1.01-4.265 3.18-4.678l144.624-27.562c.444-.085.898-.093 1.345-.026l21.693 3.27 22.757-13.22c3.267-1.898 2.324-6.851-1.413-7.414l-47.718-7.194c-.447-.067-.901-.059-1.345.026l-144.624 27.562c-2.17.414-3.594 2.508-3.18 4.678l5.991 31.434c0 .002.001.003.001.005z" fill="#ffd15b"/></g></g><g><path d="m502.212 418.406-47.717-7.195c-1.287-.193-2.589-.168-3.868.074l-144.625 27.56c-6.229 1.187-10.331 7.22-9.144 13.449l5.99 31.435c1.049 5.505 5.883 9.349 11.292 9.348.711 0 1.433-.066 2.157-.204l144.623-27.56c1.28-.244 2.5-.699 3.625-1.353l41.728-24.239c4.28-2.486 6.447-7.234 5.521-12.096s-4.688-8.481-9.582-9.219zm-150.446 52.438-4.68-24.558 99.711-19.001 4.68 24.558zm-39.518-17.919 20.104-3.831 4.68 24.558-20.103 3.831zm153.382-6.941-3.517-18.454 28.014 4.224z"/><path d="m492.5 18.928h-376.27c-4.142 0-7.5 3.358-7.5 7.5s3.358 7.5 7.5 7.5h376.27c2.481 0 4.5 1.969 4.5 4.39v276.39h-31.455l-7.613-18.608h.615c3.653 0 7.005-1.676 9.198-4.597s2.865-6.608 1.844-10.115l-12.739-43.782 11.268 9.325c1.399 1.158 3.093 1.722 4.777 1.722 2.158 0 4.299-.926 5.782-2.718 2.641-3.191 2.195-7.919-.996-10.56l-14.304-11.838c6.476-1.859 11.232-7.823 11.232-14.889v-54.29c0-11.212-4.363-21.75-12.291-29.678-7.934-7.92-18.474-12.283-29.679-12.283-22.911 0-41.58 18.46-41.943 41.286-.004.126-.016.249-.017.376 0 .058.003.115.003.173 0 .042-.003.083-.003.125v54.29c0 6.728 4.316 12.452 10.319 14.59l-14.601 11.789c-3.223 2.602-3.726 7.324-1.124 10.547 1.482 1.835 3.651 2.789 5.84 2.789 1.654 0 3.32-.545 4.707-1.665l11.405-9.209-12.773 43.896c-1.021 3.507-.349 7.194 1.843 10.116 2.135 2.845 5.372 4.496 8.913 4.581l-7.932 18.625h-49.209l-16.951-38.069-.139-5.953 26.465-11.807c3.783-1.688 5.481-6.122 3.793-9.905-1.687-3.782-6.12-5.483-9.905-3.793l-20.734 9.25-.228-9.76c4.89-1.415 9.342-4.095 12.95-7.876 5.38-5.638 8.243-13.034 8.061-20.825-.376-16.083-13.729-28.865-29.852-28.486-16.083.377-28.862 13.768-28.486 29.852.182 7.791 3.388 15.045 9.026 20.426 3.781 3.608 8.354 6.082 13.305 7.267l.223 9.521-20.58-8.05c-3.858-1.509-8.208.396-9.717 4.253s.396 8.208 4.253 9.717l26.424 10.335.145 6.186-14.721 37.718h-46.516l-26.086-63.737.16-22.719 23.695 20.279c1.414 1.21 3.147 1.802 4.873 1.802 2.115 0 4.218-.89 5.702-2.624 2.693-3.147 2.325-7.881-.822-10.575l-33.309-28.507.091-12.939c19.595-3.41 34.608-20.459 34.754-41.036.079-11.208-4.212-21.777-12.082-29.759-7.87-7.981-18.377-12.42-29.585-12.5-.102 0-.199-.001-.301-.001-23 0-41.795 18.631-41.958 41.668-.145 20.577 14.627 37.835 34.172 41.521l-.091 12.94-33.708 28.035c-3.185 2.648-3.619 7.377-.97 10.562s7.378 3.619 10.562.97l23.978-19.943-.16 22.718-27.185 63.843h-83.22v-58.865h4.585c26.191 0 47.5-21.309 47.5-47.5v-80.581c0-26.191-21.309-47.5-47.5-47.5h-27.233c-26.191 0-47.5 21.309-47.5 47.5v80.581c0 26.191 21.309 47.5 47.5 47.5h7.649v58.865h-73.394v-276.277c0-2.481 2.019-4.5 4.5-4.5h61.73c4.142 0 7.5-3.358 7.5-7.5s-3.358-7.5-7.5-7.5h-61.73c-10.752 0-19.5 8.748-19.5 19.5v331.18c0 10.752 8.748 19.5 19.5 19.5h76.797l-36.742 13.949c-5.927 2.25-8.919 8.904-6.67 14.832v.001l11.358 29.917c1.742 4.589 6.124 7.418 10.765 7.418 1.354 0 2.729-.241 4.068-.749l137.639-52.254c1.217-.461 2.338-1.121 3.336-1.962l13.219-11.152h158.71c4.142 0 7.5-3.358 7.5-7.5s-3.358-7.5-7.5-7.5h-140.93l5.886-4.965c3.783-3.191 5.093-8.244 3.336-12.871-1.756-4.627-6.094-7.521-11.038-7.416l-48.242 1.201c-1.304.032-2.582.284-3.796.745l-61.389 23.306h-116.307c-2.481 0-4.5-2.019-4.5-4.5v-39.9h482v39.79c0 2.585-1.977 4.61-4.5 4.61h-65.52c-4.142 0-7.5 3.358-7.5 7.5s3.358 7.5 7.5 7.5h65.52c10.752 0 19.5-8.797 19.5-19.61v-331.18c0-10.692-8.748-19.39-19.5-19.39zm-411.755 221.915c-17.92 0-32.5-14.58-32.5-32.5v-80.581c0-17.92 14.58-32.5 32.5-32.5h27.234c17.92 0 32.5 14.58 32.5 32.5v80.581c0 17.92-14.58 32.5-32.5 32.5h-4.585v-11.987l25.186-25.186c2.929-2.929 2.929-7.678 0-10.606-2.929-2.929-7.678-2.929-10.606 0l-14.579 14.579v-6.658c0-.002 0-.003 0-.005v-60.622c0-4.142-3.358-7.5-7.5-7.5s-7.5 3.358-7.5 7.5v42.519l-14.579-14.579c-2.929-2.929-7.678-2.929-10.606 0-2.929 2.929-2.929 7.678 0 10.606l25.186 25.186v21.658.005 15.091h-7.651zm115.458 126.381 8.873 23.372-94.896 36.027-8.873-23.372zm-119.179 71.987-8.874-23.373 19.133-7.263 8.873 23.373zm140.973-56.843-6.668-17.564 28.323-.705zm192.162-101.269 18.512-63.624h6.7l18.512 63.624zm-4.479-94.613c5.4 4.54 11.963 7.736 19.171 9.096l-.049 6.971c-3.995.44-7.501 2.969-9.187 6.595h-9.435c-.28 0-.5-.22-.5-.5zm53.92-31.778c-.191 14.729-12.228 26.613-26.955 26.612-.063 0-.129 0-.193-.001-14.685-.103-26.575-11.992-26.763-26.611zm-49.574-15c4.811-7.401 13.148-12.31 22.614-12.31 7.203 0 13.979 2.805 19.077 7.894 1.359 1.359 2.55 2.841 3.573 4.417h-45.264zm38.402 69.44c-1.608-3.455-4.865-5.919-8.625-6.525l.049-6.935c7.434-1.294 14.206-4.547 19.758-9.216v22.176c0 .271-.229.5-.5.5zm-26.921 86.951h20.218l7.613 18.608h-35.756zm-113.467-79.115c-.183-7.815 6.026-14.321 13.841-14.504.112-.003.224-.004.336-.004 7.665 0 13.989 6.143 14.169 13.845.088 3.786-1.302 7.379-3.917 10.119-2.614 2.739-6.139 4.297-9.925 4.385-3.784.097-7.379-1.302-10.119-3.917-2.739-2.613-4.297-6.138-4.385-9.924zm16.071 80.794 7.538 16.93h-14.146zm-129.095-143.612c.104-14.803 12.18-26.773 26.96-26.773.064 0 .129 0 .193.001 7.202.05 13.953 2.903 19.01 8.031s7.813 11.919 7.763 19.122c-.104 14.804-12.18 26.775-26.96 26.774-.063 0-.129 0-.193-.001-14.867-.105-26.877-12.287-26.773-27.154zm26.135 117.719 17.526 42.823h-35.761z"/></g></g></svg>