<svg height="512" viewBox="0 0 512 512" width="512" xmlns="http://www.w3.org/2000/svg" xmlns:xlink="http://www.w3.org/1999/xlink"><clipPath id="a"><path d="m0 0h512v512h-512z"/></clipPath><g clip-path="url(#a)"><g fill="#537796"><circle cx="31.763" cy="31.763" r="31.763" transform="translate(418.622 140.891)"/><path d="m432.7 206.9h-76.454v-44.052a19.917 19.917 0 0 0 -.214-2.736c-.028-.186-.053-.376-.086-.562a19.652 19.652 0 0 0 -.6-2.521c-.047-.15-.106-.3-.156-.445a19.7 19.7 0 0 0 -.879-2.151c-.067-.139-.125-.281-.195-.417a19.306 19.306 0 0 0 -1.341-2.24c-.089-.131-.184-.253-.278-.381a19.054 19.054 0 0 0 -1.622-1.965c-.036-.039-.07-.081-.106-.12a19.659 19.659 0 0 0 -1.979-1.764c-.161-.125-.326-.245-.49-.367a19.477 19.477 0 0 0 -2.068-1.339c-.072-.042-.139-.089-.214-.128l-.042-.025-53.156-28.524a19.479 19.479 0 0 0 -23.421 3.843l-58.341 62.232a19.479 19.479 0 1 0 28.422 26.644l48.106-51.312 19.208 10.305-174.444 215.069a19.481 19.481 0 0 0 30.262 24.54l88.5-109.111 57.963 5.944-63.139 68.633a19.481 19.481 0 0 0 28.673 26.38l89.455-97.236a19.481 19.481 0 0 0 -12.348-32.569l-71.274-7.311 36.843-45.423v8.585a19.479 19.479 0 0 0 19.481 19.481h95.934a19.481 19.481 0 1 0 0-38.961z" transform="translate(59.818 40.27)"/><path d="m0 0h162.818v11.132h-162.818z" transform="translate(50.761 340.59)"/><path d="m0 0h162.818v11.132h-162.818z" transform="translate(26.193 373.165)"/><path d="m0 0h162.818v11.132h-162.818z" transform="translate(0 405.737)"/><path d="m140.757 259.207a93.08 93.08 0 1 0 -52.1-120.885 92.99 92.99 0 0 0 52.1 120.885zm-42.39-57.994c21.44-5.591 38.007-18.417 46.456-36.067l24.9 9.9-28.695 72.17a81.759 81.759 0 0 1 -42.661-46.002zm-.81-54.86 39.476 15.7c-7.511 15.237-22.166 26.332-41.171 31.194a81.5 81.5 0 0 1 1.695-46.893zm51.231 103.954 28.7-72.173 24.9 9.9c-5.981 18.643-2.736 39.359 9.031 58.158-1.261.618-2.538 1.213-3.838 1.773a81.341 81.341 0 0 1 -58.792 2.343zm69.93-8.179c-10.5-16.592-13.55-34.742-8.538-50.995l39.473 15.7a81.206 81.206 0 0 1 -30.935 35.296zm34.021-43.055-39.476-15.7c7.522-15.253 22.2-26.354 41.221-31.205a81.18 81.18 0 0 1 -1.744 46.906zm-2.338-58.8c.559 1.3 1.08 2.61 1.572 3.927-21.459 5.585-38.043 18.415-46.5 36.075l-24.907-9.9 28.695-72.17a81.359 81.359 0 0 1 41.139 42.074zm-75.152-49.506a81.462 81.462 0 0 1 26.26 4.361l-28.695 72.164-24.907-9.9c5.975-18.626 2.744-39.312-8.989-58.091a82.26 82.26 0 0 1 36.331-8.534zm-43.623 12.613c10.464 16.57 13.494 34.687 8.494 50.914l-39.42-15.677a81.409 81.409 0 0 1 30.926-35.237z" transform="translate(-22.073 -22.591)"/></g></g></svg>