<svg enable-background="new 0 0 64 64" height="512" viewBox="0 0 64 64" width="512" xmlns="http://www.w3.org/2000/svg"><path d="m62 22h-20v17c0 .552-.448 1-1 1h-15v11c0 .552.448 1 1 1h24.5l3 4 3-4h4.5c.552 0 1-.448 1-1v-28c0-.552-.448-1-1-1z" fill="#d1e7f8"/><path d="m1 9v30c0 .552.448 1 1 1h4.5l3 4 3-4h28.5c.552 0 1-.448 1-1v-30c0-.552-.448-1-1-1h-39c-.552 0-1 .448-1 1z" fill="#ffde55"/><g fill="#003f8a"><path d="m62 21h-19v-12c0-1.103-.898-2-2-2h-39c-1.103 0-2 .897-2 2v30c0 1.103.897 2 2 2h4l2.7 3.6c.189.252.485.4.8.4.314 0 .611-.148.8-.4l2.7-3.6h12v10c0 1.103.897 2 2 2h24l2.7 3.6c.189.252.485.4.8.4.314 0 .611-.148.8-.4l2.7-3.6h4c1.102 0 2-.897 2-2v-28c0-1.103-.898-2-2-2zm-49.5 18c-.315 0-.611.148-.8.4l-2.2 2.934-2.2-2.934c-.189-.252-.486-.4-.8-.4h-4.5v-30h39v13 17h-15zm49.5 12h-4.5c-.315 0-.611.148-.8.4l-2.2 2.934-2.2-2.934c-.188-.252-.485-.4-.8-.4h-24.5v-10h14c1.102 0 2-.897 2-2v-16h19z"/><path d="m14 23h-4v-3h4c.553 0 1-.448 1-1s-.447-1-1-1h-5c-.553 0-1 .448-1 1v10c0 .552.447 1 1 1s1-.448 1-1v-4h4c.553 0 1-.448 1-1s-.447-1-1-1z"/><path d="m23.929 28.628-4-10c-.153-.379-.52-.628-.929-.628s-.776.249-.929.628l-4 10c-.205.513.045 1.095.558 1.3.508.203 1.095-.044 1.3-.557l1.348-3.371h3.446l1.349 3.372c.155.39.531.628.928.628.124 0 .25-.023.371-.072.513-.205.763-.786.558-1.3zm-5.852-4.628.923-2.308.923 2.308z"/><path d="m34.885 27.471c.699-.981 1.115-2.177 1.115-3.471 0-3.309-2.691-6-6-6s-6 2.691-6 6 2.691 6 6 6c1.294 0 2.49-.416 3.471-1.115l.822.822c.195.195.451.293.707.293s.512-.098.707-.293c.391-.391.391-1.023 0-1.414zm-4.885.529c-2.206 0-4-1.794-4-4s1.794-4 4-4 4 1.794 4 4c0 .74-.216 1.424-.567 2.019l-1.726-1.726c-.391-.391-1.023-.391-1.414 0s-.391 1.023 0 1.414l1.726 1.726c-.595.352-1.279.567-2.019.567z"/><path d="m58 27h-7c-.553 0-1-.448-1-1s.447-1 1-1h7c.553 0 1 .448 1 1s-.447 1-1 1z"/><path d="m58 31h-11c-.553 0-1-.448-1-1s.447-1 1-1h11c.553 0 1 .448 1 1s-.447 1-1 1z"/><path d="m58 35h-11c-.553 0-1-.448-1-1s.447-1 1-1h11c.553 0 1 .448 1 1s-.447 1-1 1z"/><path d="m58 39h-11c-.553 0-1-.448-1-1s.447-1 1-1h11c.553 0 1 .448 1 1s-.447 1-1 1z"/><path d="m58 45h-27c-.553 0-1-.448-1-1s.447-1 1-1h27c.553 0 1 .448 1 1s-.447 1-1 1z"/><path d="m50 49h-19c-.553 0-1-.448-1-1s.447-1 1-1h19c.553 0 1 .448 1 1s-.447 1-1 1z"/></g></svg>