<svg xmlns="http://www.w3.org/2000/svg" width="512" height="512" viewBox="0 0 24 24"><g fill="#2196f3"><path d="M12 24c-3.685 0-7.322-1.629-9.73-4.358a1.001 1.001 0 011.5-1.324C5.804 20.624 8.881 22 12 22c5.066 0 9.373-3.735 10.019-8.689a.992.992 0 011.12-.863.999.999 0 01.862 1.121C23.228 19.516 18.068 24 12 24zM1.001 11.56l-.13-.008a.999.999 0 01-.862-1.121C.782 4.484 5.941 0 12.01 0c3.69 0 7.324 1.63 9.722 4.36a1 1 0 11-1.502 1.319C18.206 3.375 15.133 2 12.01 2 6.943 2 2.637 5.735 1.991 10.689a1 1 0 01-.99.871z"/><path d="M23.383 2.076a.998.998 0 00-1.09.217l-4 4A1 1 0 0019 8h4a1 1 0 001-1V3a1 1 0 00-.617-.924zM5 16H1a1 1 0 00-1 1v4a1 1 0 001.707.707l4-4A1 1 0 005 16z"/></g><g fill="#1d83d4"><path d="M5 16H1a1 1 0 00-1 1v4a1 1 0 001.707.707l1.3-1.3c-.257-.244-.503-.5-.737-.765a1.001 1.001 0 011.5-1.324c.207.234.425.459.652.674l1.285-1.285A1 1 0 005 16zM12 0C5.936.005.782 4.488.009 10.431a1 1 0 00.862 1.121l.13.008a1 1 0 00.99-.871C2.636 5.739 6.938 2.005 12 2z"/><path d="M3.02 17.98a1.002 1.002 0 0 0-.75 1.662c.234.266.481.521.737.765A13.193 13.193 0 0 0 12 24v-2c-2.802 0-5.57-1.111-7.578-3.008-.227-.215-.445-.44-.652-.674a1 1 0 0 0-.75-.338z"/></g><path fill="#ffc107" d="M16.908 10.39a.75.75 0 0 0-.658-.39h-3.114l.855-5.126a.75.75 0 0 0-1.344-.566l-5.5 7.5A.749.749 0 0 0 7.75 13h3.145l-.814 6.151a.747.747 0 0 0 .486.803l.256.046c.25 0 .491-.126.632-.346l5.427-8.5a.752.752 0 0 0 .026-.764z"/><path fill="#dea806" d="M16.25 10h-3.114l-2.241 3-.814 6.151a.747.747 0 0 0 .486.803l.256.046c.25 0 .491-.126.632-.346l5.427-8.5A.75.75 0 0 0 16.25 10z"/></svg>