<svg height="512" viewBox="0 0 512 512" width="512" xmlns="http://www.w3.org/2000/svg" xmlns:xlink="http://www.w3.org/1999/xlink"><clipPath id="a"><path d="m0 0h512v512h-512z"/></clipPath><g clip-path="url(#a)"><g fill="#537796"><path d="m579.625 328.194-54.512-116.13-36.067 16.931 31.071-25.947-82.225-98.471-196.212 163.837-110.01-17.114a18.181 18.181 0 0 0 -20.731 15.144l-8.9 57.21h-16.259a18.176 18.176 0 0 0 -18.155 18.155v77.572a18.176 18.176 0 0 0 18.155 18.153h135.379a18.161 18.161 0 0 0 16.222-10.051v49.727h270.192v-115.193zm-14.176-5.118-57.876 27.168v-1.321h-17.991l64.106-30.094-37.94-80.829-66.609 31.27a61.539 61.539 0 0 0 -14.6-2.917l85.452-40.114zm-128.285 7.018 9.646-4.527 4.99 10.626-9.646 4.527zm28.812 11.22-14.045-29.924-19.294 9.058-4.987-10.629 19.291-9.055-4.527-9.649-19.294 9.055-5.627-11.987-9.649 4.527 5.627 11.99-19.291 9.055 14.045 29.923 19.294-9.055 4.987 10.626-7.828 3.672h-40.6a50.476 50.476 0 0 1 -2.442-36.189l.207-.1-.107-.228a50.511 50.511 0 0 1 67.564-31.768l.125.271.253-.119a50.523 50.523 0 0 1 26.327 25.189 50.34 50.34 0 0 1 2.542 36.354l-.237.11.122.262c-.216.688-.387 1.385-.633 2.067-.518 1.425-1.123 2.8-1.76 4.156h-26.276zm-42.988-16.338-9.643 4.527-4.99-10.626 9.645-4.527zm-120.713-8.309-21.5-25.752a17.985 17.985 0 0 0 -3.471-11.573c-.21-.292-.481-.518-.706-.795l37.665-31.447a61.18 61.18 0 0 0 33.61 48.164zm-23.59-11.628 13.615 16.307-8.279 3.888-7.149-8.562zm-3.992 25.648 15.23 18.235h-18.067zm27.953 18.235-7.946-16.922 85.452-40.114a61.618 61.618 0 0 0 -7.082 13.1l-66.606 31.263 5.952 12.681zm21.544 0-3.547-7.56 48.745-22.884a61.006 61.006 0 0 0 3.154 30.444zm161.463-47.476a61.056 61.056 0 0 0 -23.773-26.382l48.745-22.881 28.882 61.53-48.688 22.856a60.946 60.946 0 0 0 -5.165-35.123zm-49.11-181.859 68.563 82.113-54.034 45.119-16.072 7.544a61.968 61.968 0 0 0 1.169-6.625l56.479-47.159-57.228-68.533-56.476 47.159a61.506 61.506 0 0 0 -14.864.886zm-14.109 81.464a61.031 61.031 0 0 0 -29.695-19.48l41.332-34.518 43.569 52.177-41.335 34.515a61.023 61.023 0 0 0 -13.871-32.694zm-97.75 36.972c.034-.722.024-1.44.088-2.168a50.7 50.7 0 0 1 50.493-46.17 51.106 51.106 0 0 1 6.75.5l.164.2.174-.143a50.418 50.418 0 0 1 43.569 52.171l-.177.146.161.195a50.836 50.836 0 0 1 -4.168 17.833l-16.262 7.636-8.312-9.956 16.359-13.661-21.183-25.372-16.359 13.666-7.523-9.009 16.359-13.661-6.829-8.178-16.362 13.648-8.489-10.166-8.178 6.829 8.489 10.166-16.359 13.671 21.185 25.371 16.359-13.662 7.523 9.012-16.356 13.658 6.829 8.178 16.359-13.657 6.516 7.8-34.317 16.109a50.312 50.312 0 0 1 -36.518-50.6l.2-.164zm65.653 12.066-7.526-9.012 8.181-6.832 7.526 9.012zm-22.537-10.362-8.181 6.829-7.523-9.012 8.178-6.829zm-49.875-21.1a61.5 61.5 0 0 0 -3.517 14.462l-47.26 39.462c-.572-.146-1.124-.347-1.714-.438l-9.746-1.519zm-232.145 115.68h135.379a7.508 7.508 0 0 1 7.5 7.5v44.979h-150.378v-44.979a7.508 7.508 0 0 1 7.499-7.5zm135.379 92.571h-135.379a7.508 7.508 0 0 1 -7.5-7.5v-16.078h150.378v16.079a7.508 7.508 0 0 1 -7.499 7.499zm26.878 39.675v-106.975h94.4a61.742 61.742 0 0 0 -11.978 8.845h-73.576v89.288h73.577a61.835 61.835 0 0 0 11.975 8.842zm73.353-19.5h-53.851v-67.973h53.851a61.18 61.18 0 0 0 0 67.976zm13.753.253v-.253h-.228a50.429 50.429 0 0 1 0-67.976h.228v-.253a50.492 50.492 0 0 1 74.668 0v.256h.231a50.429 50.429 0 0 1 0 67.976h-.231v.256a50.492 50.492 0 0 1 -74.668 0zm161.773 19.245h-94.394a61.906 61.906 0 0 0 11.972-8.842h73.578v-89.286h-73.578a61.651 61.651 0 0 0 -11.978-8.845h94.4zm-73.349-87.471h53.848v67.976h-53.851a61.188 61.188 0 0 0 0-67.976z" transform="translate(-67.625 7.816)"/><path d="m0 0h16.156v17.941h-16.156z" transform="translate(126.292 104.933)"/><path d="m0 0h16.154v17.938h-16.154z" transform="translate(161.376 141.802)"/><path d="m177.453 260.307a89.246 89.246 0 1 0 -89.246-89.243 89.345 89.345 0 0 0 89.246 89.243zm-44.547-61.841h35.084v-17.939h-35.084v-55.8h35.084v-21.8h18.926v21.8h35.084v18.929h-35.084v17.944h35.084v55.794h-35.084v21.8h-18.926v-21.8h-35.084z" transform="translate(-25.541 -38.725)"/><path d="m188.93 288.876a106.337 106.337 0 1 0 -106.336-106.338 106.338 106.338 0 0 0 106.336 106.338zm0-201.674a95.335 95.335 0 1 1 -95.335 95.338 95.444 95.444 0 0 1 95.335-95.34z" transform="translate(-37.018 -50.202)"/><path d="m190.97 192.441h-10.656v13.247h-21.314v33.05h21.313v11.743h-21.313v10.656h21.313v13.244h10.657v-13.243h21.313v-33.056h-21.313v-11.737h21.313v-10.657h-21.313zm-10.656 35.641h-10.657v-11.737h10.656zm21.313 10.656v11.743h-10.657v-11.742z" transform="translate(119.21 187.47)"/></g></g></svg>