<svg enable-background="new 0 0 512 512" height="512" viewBox="0 0 512 512" width="512" xmlns="http://www.w3.org/2000/svg"><circle cx="256" cy="256" fill="#ffce00" r="256"/><path d="m512 256c0-22.121-2.806-43.586-8.081-64.059l-73.482-73.482-348.874 110.223 133.717 133.717-133.717 30.812 110.822 110.823c20.34 5.201 41.654 7.966 63.615 7.966 141.385 0 256-114.615 256-256z" fill="#ffa300"/><path d="m430.437 118.459h-348.874v110.223h252.883l26.973 41.789 26.973-41.789h42.045z" fill="#7584f2"/><path d="m256.12 118.458v110.224h78.326l26.973 41.789 26.973-41.789h42.045v-110.224z" fill="#606aea"/><path d="m109.208 170.422c0-19.991 15.067-33.976 35.157-33.976s35.059 13.984 35.059 33.976c0 9.06-3.053 16.938-8.272 22.749l4.136 5.023-11.817 9.454-4.826-5.909c-4.333 1.674-9.159 2.659-14.28 2.659-20.09 0-35.157-13.984-35.157-33.976zm38.998 18.613-6.007-7.288 11.719-9.454 6.204 7.484c1.28-2.757 2.068-5.909 2.068-9.355 0-10.734-6.992-19.007-17.825-19.007-10.931 0-17.923 8.273-17.923 19.007 0 10.636 6.992 19.007 17.923 19.007 1.28 0 2.561-.099 3.841-.394z" fill="#fff"/><path d="m81.563 282.988h348.874v110.223h-252.883l-26.973 41.789-26.973-41.789h-42.045z" fill="#fff"/><path d="m256.12 282.988h174.317v110.223h-174.317z" fill="#e9edf5"/><path d="m375.123 367.745-3.25-9.454h-25.9l-3.25 9.454h-19.204l24.719-65.686h21.272l24.817 65.686zm-16.25-48.945-8.371 24.719h16.742z" fill="#606aea"/></svg>