<svg xmlns="http://www.w3.org/2000/svg" width="512pt" height="512pt" viewBox="0 -1 512.001 512"><path d="M76.035 89.813h185.582c8.262 0 14.961-6.7 14.961-14.965s-6.7-14.965-14.96-14.965H76.034c-8.265 0-14.965 6.699-14.965 14.965s6.7 14.965 14.965 14.965zm0 0M76.035 149.672h185.582c8.262 0 14.961-6.7 14.961-14.965s-6.7-14.965-14.96-14.965H76.034c-8.265 0-14.965 6.7-14.965 14.965s6.7 14.965 14.965 14.965zm0 0M175.8 179.602H76.036c-8.265 0-14.965 6.699-14.965 14.964 0 8.262 6.7 14.965 14.965 14.965h99.766c8.262 0 14.96-6.703 14.96-14.965 0-8.265-6.698-14.964-14.96-14.964zm0 0"/><path d="M497.035 179.602H339.203V14.965C339.203 6.699 332.5 0 324.238 0H14.965C6.699 0 0 6.7 0 14.965v240.95c0 8.265 6.7 14.964 14.965 14.964h34.918v63.695a14.97 14.97 0 0 0 14.96 14.965c4.239 0 8.38-1.8 11.278-5.121l64.211-73.54h80.36v136.317c0 8.266 6.703 14.965 14.964 14.965h135.477L435.324 505c2.89 3.73 7.293 5.8 11.832 5.8 1.617 0 3.25-.265 4.84-.808a14.964 14.964 0 0 0 10.121-14.16V422.16h34.918c8.266 0 14.965-6.7 14.965-14.965V194.566c0-8.265-6.7-14.964-14.965-14.964zm-363.5 61.347c-4.324 0-8.43 1.867-11.273 5.121l-42.45 48.618v-38.774c0-8.266-6.699-14.965-14.964-14.965H29.93V29.93h279.343v149.673h-73.617c-8.261 0-14.965 6.699-14.965 14.964v46.383zM482.07 392.23h-34.918c-8.265 0-14.965 6.7-14.965 14.965v44.895l-41.89-54.059a14.964 14.964 0 0 0-11.828-5.8H250.62v-182.7h231.45zm0 0"/><path d="M332.871 349.8a14.94 14.94 0 0 0 11.395 6.048 14.96 14.96 0 0 0 11.863-5.059l73.531-83.508c5.461-6.203 4.86-15.656-1.344-21.12-6.203-5.462-15.656-4.86-21.12 1.343l-61.29 69.605-17.414-23.523c-4.918-6.645-14.289-8.043-20.93-3.125-6.644 4.918-8.042 14.289-3.125 20.93zm0 0"/></svg>