<?xml version="1.0" encoding="UTF-8" standalone="no"?>
<svg
   xmlns:dc="http://purl.org/dc/elements/1.1/"
   xmlns:cc="http://creativecommons.org/ns#"
   xmlns:rdf="http://www.w3.org/1999/02/22-rdf-syntax-ns#"
   xmlns:svg="http://www.w3.org/2000/svg"
   xmlns="http://www.w3.org/2000/svg"
   xmlns:sodipodi="http://sodipodi.sourceforge.net/DTD/sodipodi-0.dtd"
   xmlns:inkscape="http://www.inkscape.org/namespaces/inkscape"
   version="1.1"
   x="0px"
   y="0px"
   viewBox="0 0 100 125"
   style="enable-background:new 0 0 100 100;"
   xml:space="preserve"
   id="svg8"
   sodipodi:docname="noun_defense_3518026-blue.svg"
   inkscape:version="0.92.5 (2060ec1f9f, 2020-04-08)"><metadata
     id="metadata14"><rdf:RDF><cc:Work
         rdf:about=""><dc:format>image/svg+xml</dc:format><dc:type
           rdf:resource="http://purl.org/dc/dcmitype/StillImage" /><dc:title></dc:title></cc:Work></rdf:RDF></metadata><defs
     id="defs12" /><sodipodi:namedview
     pagecolor="#ffffff"
     bordercolor="#666666"
     borderopacity="1"
     objecttolerance="10"
     gridtolerance="10"
     guidetolerance="10"
     inkscape:pageopacity="0"
     inkscape:pageshadow="2"
     inkscape:window-width="960"
     inkscape:window-height="1011"
     id="namedview10"
     showgrid="false"
     inkscape:zoom="1.888"
     inkscape:cx="50"
     inkscape:cy="62.5"
     inkscape:window-x="0"
     inkscape:window-y="0"
     inkscape:window-maximized="0"
     inkscape:current-layer="svg8" /><path
     d="M93.7,62.3c-3.4-1.6-7.4-1.8-11.3-0.6c0.5-1.7,1-3.5,1.4-5.3c3.9-1.2,7.4-4.2,9.5-8.3c2.3-4.5,2.5-9.7,0.5-13.8  c-0.4-0.8-1.3-1.3-2.2-1.1c-4.5,0.9-8.5,4.1-10.8,8.7c-2.2,4.3-2.4,9.2-0.7,13.2c-0.6,3.4-1.6,6.5-2.9,9.4c-3.1,2.3-5.3,5.5-6,9.1  c-0.1,0.3,0,0.6,0,0.9c-2.1,2.8-4.5,5.1-6.8,7.2c-3.2,0.9-6.1,2.7-8,5.2c-0.2,0.3-0.3,0.6-0.4,1c-2.8,1.6-4.9,2.7-6,3.1  c-1.1-0.4-3.2-1.4-6-3.1c0-0.3-0.2-0.7-0.4-1c-1.9-2.5-4.8-4.3-8.1-5.2c-2.3-2-4.6-4.4-6.8-7.1c0.1-0.3,0.1-0.6,0-1  c-0.7-3.5-2.9-6.8-6-9.1c-1.2-2.9-2.2-6-2.8-9.4c1.7-4,1.4-8.9-0.7-13.2C17,37.3,13,34.1,8.5,33.2c-0.9-0.2-1.8,0.3-2.2,1.1  c-2,4.1-1.8,9.3,0.5,13.8c2,4.1,5.5,7.1,9.5,8.3c0.4,1.8,0.8,3.6,1.4,5.3c-3.8-1.2-7.9-1.1-11.3,0.6c-0.8,0.4-1.3,1.3-1.1,2.2  C6.1,69,9.4,73,13.9,75.3c2.4,1.2,5,1.8,7.6,1.8c1.3,0,2.6-0.2,3.8-0.5c1.2,1.6,2.5,3.1,3.8,4.5c-4.3,0.5-8.2,2.5-10.7,5.7  c-0.6,0.7-0.6,1.7,0,2.4C21.3,92.8,26,95,31,95c4.1,0,7.9-1.4,10.7-3.9c4.1,2.4,7.2,3.6,7.5,3.7C49.5,95,49.8,95,50,95  s0.5,0,0.7-0.1c0.4-0.1,3.4-1.3,7.5-3.7C61,93.6,64.8,95,69,95c5.1,0,9.8-2.2,12.6-5.8c0.6-0.7,0.6-1.7,0-2.4  c-2.4-3.2-6.3-5.2-10.7-5.7c1.3-1.4,2.6-2.9,3.8-4.5c1.2,0.3,2.5,0.5,3.8,0.5c2.5,0,5.1-0.6,7.6-1.8c4.5-2.3,7.8-6.3,8.7-10.8  C94.9,63.6,94.5,62.7,93.7,62.3z M84.3,43.6c1.4-2.9,3.8-5,6.4-6c0.8,2.7,0.4,5.9-1,8.8c-1.5,2.9-3.8,5-6.4,6  C82.5,49.7,82.8,46.5,84.3,43.6z M16.8,52.4c-2.6-1-5-3.2-6.4-6c-1.4-2.9-1.8-6-1-8.8c2.6,1,5,3.2,6.4,6  C17.2,46.5,17.5,49.7,16.8,52.4z M15.7,71.7c-2.9-1.4-5.1-3.8-6.1-6.4c2.7-0.8,5.9-0.4,8.8,1s5.1,3.8,6.1,6.4  C21.8,73.5,18.6,73.1,15.7,71.7z M31,91c-3.2,0-6.2-1.1-8.3-3c2.1-1.9,5.1-3,8.3-3c3.2,0,6.2,1.1,8.3,3C37.2,89.9,34.3,91,31,91z   M77.2,88c-2.1,1.9-5.1,3-8.3,3c-3.2,0-6.2-1.1-8.3-3c2.1-1.9,5.1-3,8.3-3C72.2,85,75.2,86.1,77.2,88z M84.3,71.7  c-2.9,1.4-6,1.8-8.8,1c1-2.6,3.2-5,6.1-6.4s6-1.8,8.8-1C89.3,67.9,87.2,70.2,84.3,71.7z M48,7.4c0-0.1,0-0.3,0-0.4  c0-0.5,0.2-1,0.6-1.4c0.7-0.8,2.1-0.8,2.8,0C51.8,6,52,6.5,52,7c0,0.1,0,0.3,0,0.4c0,0.1-0.1,0.2-0.1,0.4c0,0.1-0.1,0.2-0.2,0.3  c-0.1,0.1-0.2,0.2-0.2,0.3C51,8.8,50.5,9,50,9c-0.5,0-1-0.2-1.4-0.6c-0.1-0.1-0.2-0.2-0.2-0.3s-0.1-0.2-0.2-0.3  C48.1,7.6,48.1,7.5,48,7.4z M38.6,8.4C38.2,8,38,7.5,38,7c0-0.5,0.2-1,0.6-1.4c0.7-0.7,2.1-0.7,2.8,0C41.8,6,42,6.5,42,7  c0,0.5-0.2,1-0.6,1.4C41,8.8,40.5,9,40,9C39.5,9,39,8.8,38.6,8.4z M58,7.4c0-0.1,0-0.3,0-0.4c0-0.5,0.2-1,0.6-1.4  c0.1-0.1,0.2-0.2,0.3-0.2c0.1-0.1,0.2-0.1,0.3-0.2c0.1-0.1,0.2-0.1,0.4-0.1c0.7-0.1,1.3,0.1,1.8,0.5C61.8,6,62,6.5,62,7  c0,0.1,0,0.3,0,0.4c0,0.1-0.1,0.2-0.1,0.4c0,0.1-0.1,0.2-0.2,0.3c-0.1,0.1-0.2,0.2-0.2,0.3C61,8.8,60.5,9,60,9c-0.1,0-0.3,0-0.4,0  c-0.1,0-0.2-0.1-0.4-0.1c-0.1,0-0.2-0.1-0.3-0.2c-0.1-0.1-0.2-0.1-0.3-0.2c-0.1-0.1-0.2-0.2-0.2-0.3s-0.1-0.2-0.2-0.3  C58.1,7.6,58.1,7.5,58,7.4z M49.6,65C49.6,65,49.6,65,49.6,65c0.1,0,0.3,0,0.4,0s0.3,0,0.4,0c0,0,0,0,0,0C56.8,63.6,62,56.7,62,49.5  V27c0-1.1-0.9-2-2-2H40c-1.1,0-2,0.9-2,2v22.5C38,56.7,43.2,63.6,49.6,65z M52,29h6v20.5c0,4.4-2.6,8.7-6,10.6V29z M42,29h6v31.1  c-3.4-1.9-6-6.2-6-10.6V29z M49.7,77c0.1,0,0.2,0,0.3,0s0.2,0,0.3,0C62.3,75,72,64.4,72,53.3V23c0-1.1-0.9-2-2-2c-2.2,0-4-1.8-4-4  c0-1.1-0.9-2-2-2H36c-1.1,0-2,0.9-2,2c0,2.2-1.8,4-4,4c-1.1,0-2,0.9-2,2v30.3C28,64.4,37.7,75,49.7,77z M32,24.8  c2.8-0.7,5-2.9,5.8-5.8h24.5c0.7,2.8,2.9,5,5.8,5.8v28.5c0,9-8.2,17.9-18,19.7c-9.8-1.8-18-10.7-18-19.7V24.8z"
     id="path2"
     style="fill:#48657f;fill-opacity:1" /></svg>