<?xml version="1.0" encoding="utf-8"?>
<!-- Generator: Adobe Illustrator 19.0.0, SVG Export Plug-In . SVG Version: 6.00 Build 0)  -->
<svg version="1.0" id="圖層_1" xmlns="http://www.w3.org/2000/svg" xmlns:xlink="http://www.w3.org/1999/xlink" x="0px" y="0px"
	 viewBox="0 0 512 512" style="enable-background:new 0 0 512 512;" xml:space="preserve">
<style type="text/css">
	.st0{fill:#738291;}
	.st1{fill:#FFFFFF;}
</style>
<g>
	<g>
		<path class="st0" d="M103.5,311.9h-1c-13.5,0-22.9-1.9-29.6-4.7c3.9,9.6,8.5,18.7,13.9,27.5c6.3-6,13.8-10.5,21.9-13.5
			C106.8,318.2,105.1,315.1,103.5,311.9z"/>
		<path class="st0" d="M409.5,311.9h-1c-5.8,11.1-12.8,21.5-20.8,31.1c6.6,6.1,13,12.1,18.9,17.5c13.5-15.8,24.5-33.8,32.6-53.3
			C432.5,310,423,311.9,409.5,311.9z"/>
		<path class="st0" d="M423.9,193.4c3,12.2,4.2,23.8,4.2,38.9c0,2.1-0.1,4.2-0.2,6.3h25.8c0.1-2.1,0.2-4.2,0.2-6.3
			c0-14-1.5-28-4.5-41.8l-1.3-6l-9.9,15.5L422,185.4L423.9,193.4z"/>
		<path class="st0" d="M127.6,346.9c-8.4,0.1-16.5,2.4-23.2,7.4c-0.9,0.7-1.7,1.4-2.5,2.1c4.7,5.8,9.7,11.3,15,16.6l18.2-18.2
			C132.5,352.2,130,349.6,127.6,346.9z"/>
		<path class="st0" d="M84,238.7c-0.1-2.1-0.2-4.2-0.2-6.3c0-15.1,1.3-26.8,4.2-38.9l1.9-8L73.8,200l-9.9-15.5l-1.3,6
			c-3,13.8-4.5,27.8-4.5,41.8c0,2.1,0.1,4.2,0.2,6.3H84z"/>
		<path class="st0" d="M347.3,392c-2.5-3.1-5-6.3-7.6-9.3c-24.8,13.9-53.4,21.8-83.7,21.8c-34.8,0-67.1-10.4-94.2-28.2l-18.5,18.5
			c31.7,22,70,35.1,111.4,35.4l0,0h1.3h1.3l0,0c35.9-0.2,69.6-10.2,98.6-27.2C353,399.3,350.1,395.5,347.3,392z"/>
	</g>
	<path class="st0" d="M512,245H350.5c-1-10.4-1.6-21.2-1.3-32.5c0.4-15.3,3.8-29.7,6.6-39.2c32.8-32.8,57.8-57.8,60.4-60.4
		c8.3-8.3,1-31.3,1-31.3l-70.9,70.9c-16.3-9.7-47.2-23.6-90.3-23.6l0,0v0c-37.4,0-65.5,10.4-83,19.5l-4.5-4.5l6.1-6.1
		c1.3-1.3,1.3-3.5,0-4.8l-9.9-9.9c-1.3-1.3-3.5-1.3-4.8,0l-6.1,6.1l-19.7-19.7l8.1-8.1l-8.1-8.1l-8.1,8.1L96.5,72L81.3,87.1
		l29.5,29.5l-7.1,7.1l27.8,27.8l-6.1,6.1c-1.3,1.3-1.3,3.5,0,4.8l9.9,9.9c1.3,1.3,3.5,1.3,4.8,0l6.1-6.1l11.1,11.1
		c2.5,9.3,5.1,21.9,5.4,35.2c0.3,11.3-0.3,22.1-1.3,32.5H0c0,9.8,12.2,17.7,38.8,17.7h120.7c-0.2,1.2-0.3,2.5-0.5,3.7H28.9
		c0,9.8,12.2,17.7,38.8,17.7h89.2c-0.1,0.5-0.1,0.9-0.2,1.4c-0.1,0.8-0.1,1.5-0.2,2.3H63.7c0,9.8,12.2,17.7,38.8,17.7H157
		c1.4,10.5,4.7,19.5,9.1,27.2l-0.2,0.2c-25.2-14.4-56.4-12-75.7,7.3c-19.4,19.4-21.4,50.2-7.1,75.5l-1.1,1.1c-4,4-4,10.4,0,14.4
		l0.8,0.8c3.6,3.6,9.4,3.9,13.3,0.8c1.7,1.4,6.7,3.7,8.6-0.4c1.5-3.2,0.3-5.6-0.9-7.2l66.1-66.1c1.4,1.6,2.8,3.1,5.8,4.1
		c5.5,1.7,9.2-3,9.7-8.3c0.7,0.5,1.3,1,2,1.5c21.9,16.1,70,49,68.6,47c-1.4,2,46.7-30.9,68.6-47c0.3-0.2,0.5-0.4,0.8-0.6
		c8.2,9.5,17.7,20.7,26.8,32.2c14.5,18.2,31,40.5,38.9,49.8c9.4,11.1,30.1-22.4,37.6-38.1c2-4.2,2.4-7.3-3.4-13
		c-4-3.9-46.6-43.5-73.2-68.1c1.3-4.1,2.3-8.4,2.9-13.1h54.5c26.6,0,38.8-7.9,38.8-17.7h-92.9c-0.1-0.8-0.1-1.5-0.2-2.3
		c0-0.5-0.1-0.9-0.2-1.4h89.2c26.6,0,38.8-7.9,38.8-17.7H352.9c-0.2-1.2-0.3-2.5-0.5-3.7h120.7C499.8,262.8,512,254.8,512,245z
		 M90.8,408c-11.2-20.8-9-44.7,9.8-58.8c14.5-10.8,34.5-11.4,51.9-2.9L90.8,408z M325.1,284.7c-1.5,6.1-7.3,9.9-13.4,9.1
		c-0.4,6.1-5.1,11.1-11.4,11.5c-6.2,0.4-11.7-3.9-12.8-9.9c-5.9,1.5-12.1-1.5-14.5-7.3c-0.8-1.9-1-3.8-0.8-5.7
		c-5.9,1.1-12-0.8-16.3-5.2c-4.3,4.5-10.4,6.4-16.3,5.2c0.2,1.9,0,3.8-0.8,5.7c-2.3,5.8-8.6,8.8-14.5,7.3c-1.2,6-6.6,10.3-12.8,9.9
		c-6.2-0.4-11-5.4-11.4-11.5c-6.1,0.7-11.8-3.1-13.4-9.1c-1.5-6.1,1.8-12.2,7.4-14.4c-2.6-5.5-0.7-12.2,4.6-15.5
		c5.3-3.3,12.1-2.1,16,2.6c2.5-2.3,5.7-3.4,8.9-3.3c-5.5-4.5-8-12.1-5.7-19.3c2.8-8.6,11.6-13.7,20.3-12c1.2-8.8,8.6-15.5,17.7-15.5
		c9.1,0,16.6,6.8,17.7,15.5c8.7-1.6,17.4,3.4,20.3,12c2.3,7.2-0.2,14.8-5.7,19.4c3.2-0.1,6.4,0.9,8.9,3.2c3.9-4.7,10.7-6,16-2.6
		c5.3,3.3,7.1,10,4.6,15.5C323.4,272.6,326.7,278.7,325.1,284.7z"/>
	<g>
		<path class="st1" d="M347.1,167.2l0.6-1.8l-1.6-1.1c-14.2-9.4-44.7-25.2-90-25.2c-44.9,0-75.7,15.8-90,25.2l-1.6,1.1l0.6,1.8
			c3.4,10.7,7.5,27.1,7.9,45c0.6,20.9-1.9,40.3-4,57.6c-0.7,5.8-1.4,11.3-2,16.8c-3.4,32.4,12.6,51.4,26.5,61.6
			c17.2,12.6,48.5,34.1,61.2,42.5l1.4,0.9l1.4-0.9c12.7-8.4,44.1-29.9,61.2-42.5c14-10.2,29.9-29.3,26.5-61.6
			c-0.6-5.6-1.3-11.2-2-17.1c-2.1-17.1-4.6-36.5-4-57.4C339.6,194.3,343.7,177.8,347.1,167.2z M338.1,270.2c0.7,5.9,1.4,11.4,2,16.9
			c3.1,30-11.6,47.6-24.5,57c-16.5,12.1-46.2,32.5-59.6,41.4c-13.5-8.9-43.1-29.3-59.6-41.4c-12.9-9.5-27.6-27-24.5-57
			c0.6-5.4,1.2-10.9,2-16.9c2.2-17.3,4.6-36.9,4-58.2c-0.5-17.4-4.3-33.6-7.6-44.5c14.5-9.2,43.7-23.4,85.6-23.4
			c42.3,0,71.3,14.1,85.7,23.3c-3.3,11-7.1,27.1-7.6,44.6C333.4,233.3,335.9,252.9,338.1,270.2z"/>
	</g>
	<path class="st0" d="M311.7,275c-0.1-0.5-0.6-0.9-1.2-0.7l-1.7,0.4c-0.2,0.1-0.3,0.2-0.4,0.4l-4.3,1c-0.4-1-1-2-1.9-2.7l2.3-3.7
		c0.2,0,0.4-0.1,0.5-0.3l0.9-1.4c0.3-0.5,0.2-1.1-0.3-1.3c-0.5-0.3-1.1-0.1-1.3,0.3l-0.9,1.5c-0.1,0.2-0.1,0.4,0,0.6l-2.3,3.7
		c-1-0.5-2.2-0.7-3.2-0.6l-1-4.3c0.1-0.2,0.2-0.3,0.2-0.6l-0.4-1.7c-0.1-0.5-0.6-0.9-1.2-0.7c-0.5,0.1-0.9,0.6-0.7,1.2l0.4,1.7
		c0.1,0.2,0.2,0.3,0.4,0.4l1,4.3c-1,0.4-2,1-2.7,1.9l-3.7-2.3c0-0.2-0.1-0.4-0.3-0.5l-1.4-0.9c-0.5-0.3-1.1-0.2-1.3,0.3
		c-0.3,0.5-0.1,1.1,0.3,1.3l1.5,0.9c0.2,0.1,0.4,0.1,0.6,0l3.7,2.3c-0.5,1-0.7,2.2-0.6,3.2l-4.3,1c-0.2-0.1-0.3-0.2-0.6-0.2
		l-1.7,0.4c-0.5,0.1-0.9,0.6-0.7,1.2c0.1,0.5,0.6,0.9,1.2,0.7l1.7-0.4c0.2-0.1,0.3-0.2,0.4-0.4l4.3-1c0.4,1,1,2,1.9,2.7l-2.3,3.7
		c-0.2,0-0.4,0.1-0.5,0.3l-0.9,1.4c-0.3,0.5-0.2,1.1,0.3,1.3c0.5,0.3,1.1,0.1,1.3-0.3l0.9-1.5c0.1-0.2,0.1-0.4,0-0.6l2.3-3.7
		c1,0.5,2.2,0.7,3.2,0.6l1,4.3c-0.1,0.2-0.2,0.3-0.2,0.6l0.4,1.7c0.1,0.5,0.6,0.9,1.2,0.7c0.5-0.1,0.9-0.6,0.7-1.2l-0.4-1.7
		c-0.1-0.2-0.2-0.3-0.4-0.4l-1-4.3c1-0.4,2-1,2.7-1.9l3.7,2.3c0,0.2,0.1,0.4,0.3,0.5l1.4,0.9c0.5,0.3,1.1,0.2,1.3-0.3
		c0.3-0.5,0.1-1.1-0.3-1.3l-1.5-0.9c-0.2-0.1-0.4-0.1-0.6,0l-3.7-2.3c0.5-1,0.7-2.2,0.6-3.2l4.3-1c0.2,0.1,0.3,0.2,0.6,0.2l1.7-0.4
		C311.4,276.1,311.8,275.6,311.7,275z"/>
	<path class="st0" d="M225.8,279.9l-1.7-0.4c-0.2,0-0.4,0-0.6,0.2l-4.3-1c0.1-1.1,0-2.2-0.6-3.2l3.7-2.3c0.2,0.1,0.4,0.1,0.6,0
		l1.5-0.9c0.5-0.3,0.6-0.9,0.3-1.3c-0.3-0.5-0.9-0.6-1.3-0.3l-1.4,0.9c-0.2,0.1-0.3,0.3-0.3,0.5l-3.7,2.3c-0.7-0.9-1.6-1.5-2.7-1.9
		l1-4.3c0.2-0.1,0.4-0.2,0.4-0.4l0.4-1.7c0.1-0.5-0.2-1.1-0.7-1.2c-0.5-0.1-1.1,0.2-1.2,0.7l-0.4,1.7c0,0.2,0,0.4,0.2,0.6l-1,4.3
		c-1.1-0.1-2.2,0-3.2,0.6l-2.3-3.7c0.1-0.2,0.1-0.4,0-0.6l-0.9-1.5c-0.3-0.5-0.9-0.6-1.3-0.3c-0.5,0.3-0.6,0.9-0.3,1.3l0.9,1.4
		c0.1,0.2,0.3,0.3,0.5,0.3l2.3,3.7c-0.9,0.7-1.5,1.6-1.9,2.7l-4.3-1c-0.1-0.2-0.2-0.4-0.4-0.4l-1.7-0.4c-0.5-0.1-1.1,0.2-1.2,0.7
		c-0.1,0.5,0.2,1.1,0.7,1.2l1.7,0.4c0.2,0,0.4,0,0.6-0.2l4.3,1c-0.1,1.1,0,2.2,0.6,3.2l-3.7,2.3c-0.2-0.1-0.4-0.1-0.6,0l-1.5,0.9
		c-0.5,0.3-0.6,0.9-0.3,1.3c0.3,0.5,0.9,0.6,1.3,0.3l1.4-0.9c0.2-0.1,0.3-0.3,0.3-0.5l3.7-2.3c0.7,0.9,1.6,1.5,2.7,1.9l-1,4.3
		c-0.2,0.1-0.4,0.2-0.4,0.4l-0.4,1.7c-0.1,0.5,0.2,1.1,0.7,1.2c0.5,0.1,1.1-0.2,1.2-0.7l0.4-1.7c0-0.2,0-0.4-0.2-0.6l1-4.3
		c1.1,0.1,2.2,0,3.2-0.6l2.3,3.7c-0.1,0.2-0.1,0.4,0,0.6l0.9,1.5c0.3,0.5,0.9,0.6,1.3,0.3c0.5-0.3,0.6-0.9,0.3-1.3l-0.9-1.4
		c-0.1-0.2-0.3-0.3-0.5-0.3l-2.3-3.7c0.9-0.7,1.5-1.6,1.9-2.7l4.3,1c0.1,0.2,0.2,0.4,0.4,0.4l1.7,0.4c0.5,0.1,1.1-0.2,1.2-0.7
		C226.7,280.5,226.4,280,225.8,279.9z"/>
	<path class="st0" d="M274.1,245.8l-2.5,0c-0.3,0-0.6,0.2-0.8,0.4h-6.4c-0.2-1.7-0.8-3.2-1.8-4.4l4.5-4.5c0.3,0.1,0.6,0,0.8-0.2
		l1.8-1.8c0.6-0.5,0.6-1.5,0-2c-0.6-0.6-1.5-0.5-2,0l-1.8,1.8c-0.2,0.2-0.3,0.5-0.2,0.8l-4.5,4.5c-1.2-1-2.8-1.6-4.4-1.8v-6.4
		c0.3-0.2,0.4-0.4,0.4-0.8l0-2.5c0-0.8-0.6-1.4-1.4-1.4c-0.8,0-1.4,0.6-1.4,1.4l0,2.5c0,0.3,0.2,0.6,0.4,0.8v6.4
		c-1.7,0.2-3.2,0.8-4.4,1.8l-4.5-4.5c0.1-0.3,0-0.6-0.2-0.8l-1.8-1.8c-0.5-0.6-1.5-0.6-2,0c-0.6,0.6-0.5,1.5,0,2l1.8,1.8
		c0.2,0.2,0.5,0.3,0.8,0.2l4.5,4.5c-1,1.2-1.6,2.8-1.8,4.4h-6.4c-0.2-0.3-0.4-0.4-0.8-0.4l-2.5,0c-0.8,0-1.4,0.6-1.4,1.4
		c0,0.8,0.6,1.4,1.4,1.4l2.5,0c0.3,0,0.6-0.2,0.8-0.4h6.4c0.2,1.7,0.8,3.2,1.8,4.4l-4.5,4.5c-0.3-0.1-0.6,0-0.8,0.2l-1.8,1.8
		c-0.6,0.5-0.6,1.5,0,2c0.6,0.6,1.5,0.5,2,0l1.8-1.8c0.2-0.2,0.3-0.5,0.2-0.8l4.5-4.5c1.2,1,2.8,1.6,4.4,1.8v6.4
		c-0.3,0.2-0.4,0.4-0.4,0.8l0,2.5c0,0.8,0.6,1.4,1.4,1.4c0.8,0,1.4-0.6,1.4-1.4l0-2.5c0-0.3-0.2-0.6-0.4-0.8v-6.4
		c1.7-0.2,3.2-0.8,4.4-1.8l4.5,4.5c-0.1,0.3,0,0.6,0.2,0.8l1.8,1.8c0.5,0.6,1.5,0.6,2,0c0.6-0.6,0.5-1.5,0-2l-1.8-1.8
		c-0.2-0.2-0.5-0.3-0.8-0.2l-4.5-4.5c1-1.2,1.6-2.8,1.8-4.4h6.4c0.2,0.3,0.4,0.4,0.8,0.4l2.5,0c0.8,0,1.4-0.6,1.4-1.4
		C275.6,246.4,274.9,245.7,274.1,245.8z"/>
</g>
</svg>
