<svg height="512" viewBox="0 0 512 512" width="512" xmlns="http://www.w3.org/2000/svg" xmlns:xlink="http://www.w3.org/1999/xlink"><clipPath id="a"><path d="m0 0h512v512h-512z"/></clipPath><g clip-path="url(#a)"><path d="m0 0h512v512h-512z" fill="#fff"/><g fill="#537796" transform="translate(-65.744 -58.765)"><path d="m77.934 163.96 87.375-83.006h285.476v124.23h12.19v-136.419h-302.535l-94.7 89.964v400.781h119.37v-12.19h-107.176z"/><path d="m295.265 173.29h-89.213a4.573 4.573 0 0 0 -4.571 4.571c0 24.849 22.063 45.065 49.179 45.065s49.176-20.216 49.176-45.065a4.573 4.573 0 0 0 -4.571-4.571z" transform="translate(277.908 214.006)"/><path d="m162.3 222.926c27.113 0 49.176-20.216 49.176-45.065a4.573 4.573 0 0 0 -4.571-4.571h-89.216a4.573 4.573 0 0 0 -4.571 4.571c0 24.849 22.06 45.065 49.182 45.065z" transform="translate(96.993 214.006)"/><path d="m458.014 446.1h-52.421v-3.7a13.355 13.355 0 0 0 -13.357-13.357h-34.561v-8.216a13.355 13.355 0 0 0 -13.357-13.357h-35.743v-244.957a25.285 25.285 0 0 0 13.311-18.385h103.969l-43.246 136.978a4.568 4.568 0 0 0 4.358 5.945h89.213a4.571 4.571 0 0 0 4.361-5.945l-43.246-136.978h39.2v-12.19h-155.608a25.283 25.283 0 0 0 -47.905 0h-155.61v12.19h39.2l-43.244 136.978a4.571 4.571 0 0 0 4.361 5.945h89.211a4.568 4.568 0 0 0 4.358-5.945l-43.241-136.978h103.965a25.293 25.293 0 0 0 13.311 18.385v244.963h-35.743a13.355 13.355 0 0 0 -13.357 13.357v8.216h-34.56a13.355 13.355 0 0 0 -13.357 13.351v3.7h-52.421a13.355 13.355 0 0 0 -13.355 13.355v6.317h348.871v-6.317a13.356 13.356 0 0 0 -13.357-13.355zm-64.814-168.191 38.37-121.534 38.367 121.534zm-269.278 0 38.378-121.533 38.367 121.534z" transform="translate(96.993 94.146)"/><path d="m138.7 137.169h-51.935l-12.19 12.19h70.225a6.1 6.1 0 0 0 6.095-6.095v-66.711l-12.195 12.19z" transform="translate(18.08 15.946)"/></g></g></svg>