<svg enable-background="new 0 0 504.123 504.123" viewBox="0 0 504.123 504.123" xmlns="http://www.w3.org/2000/svg"><circle cx="252.062" cy="252.062" fill="#fbbd5e" r="252.062"/><g fill="#183651"><path d="m341.071 195.348h15.754v15.754h-15.754z"/><path d="m389.12 195.348h15.754v15.754h-15.754z"/><path d="m436.382 195.348h15.754v15.754h-15.754z"/><path d="m51.988 293.022h15.754v15.754h-15.754z"/><path d="m99.249 293.022h15.754v15.754h-15.754z"/><path d="m147.298 293.022h15.754v15.754h-15.754z"/><path d="m146.511 65.378-11.028-11.027 14.179-14.966-14.179-14.967 11.028-11.027 25.994 25.994z"/><path d="m111.852 31.508h48.837v15.754h-48.837z"/></g><path d="m200.074 432.443h103.975v63.803h-103.975z" fill="#4fbf9f"/><path d="m304.049 504.123h-103.975c-4.726 0-7.877-3.151-7.877-7.877v-63.803c0-4.726 3.151-7.877 7.877-7.877h103.975c4.726 0 7.877 3.151 7.877 7.877v63.803c0 4.726-3.151 7.877-7.877 7.877zm-96.098-15.754h88.222v-48.049h-88.222z" fill="#183651"/><path d="m200.074 326.105h103.975v63.803h-103.975z" fill="#e0e4e8"/><path d="m304.049 397.785h-103.975c-4.726 0-7.877-3.151-7.877-7.877v-63.803c0-4.726 3.151-7.877 7.877-7.877h103.975c4.726 0 7.877 3.151 7.877 7.877v63.803c0 4.726-3.151 7.877-7.877 7.877zm-96.098-15.754h88.222v-48.049h-88.222z" fill="#183651"/><path d="m200.074 220.554h103.975v63.803h-103.975z" fill="#4fbf9f"/><path d="m304.049 291.446h-103.975c-4.726 0-7.877-3.151-7.877-7.877v-63.803c0-4.726 3.151-7.877 7.877-7.877h103.975c4.726 0 7.877 3.151 7.877 7.877v63.803c0 4.726-3.151 7.877-7.877 7.877zm-96.098-15.754h88.222v-48.049h-88.222z" fill="#183651"/><path d="m200.074 114.215h103.975v63.803h-103.975z" fill="#e0e4e8"/><path d="m304.049 185.895h-103.975c-4.726 0-7.877-3.151-7.877-7.877v-63.803c0-4.726 3.151-7.877 7.877-7.877h103.975c4.726 0 7.877 3.151 7.877 7.877v63.803c0 3.939-3.151 7.877-7.877 7.877zm-96.098-15.753h88.222v-48.049h-88.222z" fill="#183651"/><path d="m200.074 7.877h103.975v63.803h-103.975z" fill="#4fbf9f"/><g fill="#183651"><path d="m304.049 79.557h-103.975c-4.726 0-7.877-3.151-7.877-7.877v-63.803c0-4.726 3.151-7.877 7.877-7.877h103.975c4.726 0 7.877 3.151 7.877 7.877v63.803c0 3.938-3.151 7.877-7.877 7.877zm-96.098-15.754h88.222v-48.049h-88.222z"/><path d="m338.708 487.582-11.028-11.028 14.178-14.179-14.178-14.966 11.028-11.027 25.206 25.993z"/><path d="m304.049 454.498h48.837v15.754h-48.837z"/><path d="m152.812 484.431-11.815-11.028 14.966-14.966-14.966-14.966 11.815-11.028 25.206 25.994z"/><path d="m166.203 466.314h-102.4c-32.295 0-58.289-25.994-58.289-58.289s26.782-57.502 59.077-57.502h135.483v15.754h-135.483c-23.631 0-42.535 18.905-42.535 42.535s18.905 42.535 42.535 42.535h102.4v14.966h-.788z"/><path d="m152.812 271.754-11.815-11.028 14.966-14.178-14.966-14.966 11.815-11.028 25.206 25.994z"/><path d="m166.203 254.425h-102.4c-32.295 0-58.289-25.994-58.289-58.289s26.782-58.289 59.077-58.289h135.483v15.753h-135.483c-23.631 0-42.535 18.905-42.535 42.535s18.905 42.535 42.535 42.535h102.4v15.754h-.788z"/><path d="m351.311 382.031-25.206-25.994 25.206-25.206 11.815 11.027-14.966 14.179 14.966 14.966z"/><path d="m439.532 363.914h-102.4v-15.754h102.4c23.631 0 42.535-18.905 42.535-42.535v-3.938c0-23.631-18.905-42.535-42.535-42.535h-135.483v-15.754h135.483c32.295 0 58.289 25.994 58.289 58.289v3.938c.001 32.295-25.993 58.289-58.289 58.289z"/><path d="m351.311 170.142-25.206-25.994 25.206-25.994 11.815 11.028-14.966 14.966 14.966 14.966z"/><path d="m439.532 152.025h-102.4v-15.754h102.4c23.631 0 42.535-18.905 42.535-42.535v-3.938c0-23.631-18.905-42.535-42.535-42.535h-135.483v-15.755h135.483c32.295 0 58.289 25.994 58.289 58.289v3.938c.001 32.296-25.993 58.29-58.289 58.29z"/></g><path d="m392.271 432.443h103.975v63.803h-103.975z" fill="#f06151"/><path d="m496.246 504.123h-103.975c-4.726 0-7.877-3.151-7.877-7.877v-63.803c0-4.726 3.151-7.877 7.877-7.877h103.975c4.726 0 7.877 3.151 7.877 7.877v63.803c0 4.726-3.151 7.877-7.877 7.877zm-96.098-15.754h88.222v-48.049h-88.222z" fill="#183651"/><path d="m7.877 7.877h103.975v63.803h-103.975z" fill="#f06151"/><path d="m111.852 79.557h-103.975c-4.726 0-7.877-3.151-7.877-7.877v-63.803c0-4.726 3.151-7.877 7.877-7.877h103.975c4.726 0 7.877 3.151 7.877 7.877v63.803c0 3.938-3.151 7.877-7.877 7.877zm-96.098-15.754h88.222v-48.049h-88.222z" fill="#183651"/></svg>