<svg xmlns="http://www.w3.org/2000/svg" width="512" height="512" viewBox="0 0 16.933 16.933"><path fill="#33b9ef" d="M16.14 8.466a7.673 7.673 0 00-10.841-6.99l.474.947a6.615 6.615 0 017.987 10.012l-1.06-1.058v2.91h2.91l-1.096-1.098a7.635 7.635 0 001.625-4.723zM.794 8.466a7.673 7.673 0 0010.84 6.991l-.473-.948A6.615 6.615 0 013.174 4.497l1.06 1.059v-2.91H1.322l1.096 1.098A7.635 7.635 0 00.794 8.466z"/><path fill="#fde74c" d="M8.467 4.233a2.91 2.91 0 0 0-2.91 2.91 2.91 2.91 0 0 0 1.587 2.59v.85H9.79v-.848a2.91 2.91 0 0 0-1.323-5.502z"/><path fill="#e8ab3c" d="M7.408 11.641h2.117L9.26 12.7H7.673z"/><path fill="#ffbc42" d="M7.144 10.583H9.79v1.058H7.144z"/><path d="M8.468.529a7.912 7.912 0 0 0-3.278.705c-.321.146-.103.628.219.482a7.38 7.38 0 0 1 3.059-.658 7.404 7.404 0 0 1 7.408 7.408c0 1.72-.592 3.295-1.576 4.554a.266.266 0 0 0 .027.355l.646.648h-2.01v-2.008l.61.608c.25.259.633-.127.373-.376l-1.058-1.058a.265.265 0 0 0-.452.188v2.91c0 .146.118.265.264.265h2.91a.265.265 0 0 0 .187-.45l-.937-.942a7.893 7.893 0 0 0 1.545-4.694A7.942 7.942 0 0 0 8.468.53zm0 1.059c-.997 0-1.947.211-2.803.593-.332.14-.112.637.215.485a6.333 6.333 0 0 1 2.588-.55c3.51 0 6.35 2.84 6.35 6.35a6.321 6.321 0 0 1-.684 2.87c-.186.32.318.578.47.24a6.882 6.882 0 0 0-6.137-9.988zm-7.145.792a.265.265 0 0 0-.188.452l.939.941A7.891 7.891 0 0 0 .53 8.466 7.942 7.942 0 0 0 11.743 15.7c.322-.146.103-.629-.219-.483a7.37 7.37 0 0 1-3.056.659 7.406 7.406 0 0 1-5.84-11.968.265.265 0 0 0-.022-.35l-.644-.647H3.97v2.008l-.61-.608c-.25-.259-.633.126-.373.375l1.059 1.059c.166.17.455.05.453-.188v-2.91a.265.265 0 0 0-.266-.266zm7.143 1.588a3.174 3.174 0 0 0-1.443 6c.313.162.556-.309.242-.47a2.644 2.644 0 0 1 1.2-5 2.643 2.643 0 0 1 2.647 2.646c0 .995-.557 1.904-1.443 2.356a.265.265 0 0 0-.145.245v.573h-2.38a.265.265 0 0 0-.264.266v1.058c0 .146.118.263.264.264h.058l.215.858c.03.117.135.2.256.2H9.26c.353 0 .353-.528 0-.528H7.88l-.134-.53H9.79a.265.265 0 0 0 .264-.264v-1.75a3.177 3.177 0 0 0 1.588-2.748 3.18 3.18 0 0 0-3.176-3.176zM2.553 5.211a.266.266 0 0 0-.224.146 6.86 6.86 0 0 0-.743 3.11 6.885 6.885 0 0 0 9.683 6.285c.323-.144.108-.628-.215-.485a6.323 6.323 0 0 1-2.586.549 6.347 6.347 0 0 1-6.352-6.35c0-1.033.247-2.007.684-2.869a.265.265 0 0 0-.247-.386zm6.177.341h-.004a.264.264 0 0 0-.215.122L7.452 7.262a.265.265 0 0 0 .22.412h1.093L7.98 8.85c-.213.297.25.605.442.292l1.059-1.587a.265.265 0 0 0-.221-.41H8.167l.785-1.176a.265.265 0 0 0-.222-.417zm-1.32 5.296h2.114v.529H7.41z"/></svg>