<svg enable-background="new 0 0 512.001 512.001" viewBox="0 0 512.001 512.001" xmlns="http://www.w3.org/2000/svg"><path d="m408.231 148.946c-5.288-81.328-71.664-145.038-151.113-145.038-78.786 0-145.156 63.649-151.107 145.011-2.37 35.561 8.857 72.338 31.741 103.716l105.969 141.664c3.157 4.222 8.121 6.71 13.397 6.71s10.234-2.487 13.397-6.71l105.953-141.642c22.939-30.58 34.217-67.424 31.763-103.711zm-58.546 83.644-92.567 123.75-92.45-123.588c-18.143-24.88-27.123-53.866-25.277-81.502 4.094-55.98 49.254-113.884 117.727-113.884 69.053 0 114.085 57.831 117.721 113.795 1.919 28.327-7.011 57.246-25.154 81.429z"/><path d="m256.003 81.985c-34.139 0-61.909 27.77-61.909 61.909s27.77 61.909 61.909 61.909c34.133 0 61.909-27.77 61.909-61.909-.001-34.14-27.77-61.909-61.909-61.909zm0 90.353c-15.683 0-28.444-12.761-28.444-28.444 0-15.951 12.493-28.444 28.444-28.444s28.444 12.493 28.444 28.444c0 15.683-12.761 28.444-28.444 28.444z"/><path d="m511.239 486.381-60.236-192.981c-2.175-6.983-8.645-11.746-15.968-11.746h-112.104v33.464h99.801l49.789 159.512h-432.467l53.938-159.512h100.66v-33.464h-112.662c-7.178 0-13.553 4.573-15.851 11.367l-65.255 192.981c-1.729 5.109-.892 10.736 2.253 15.115s8.204 6.977 13.598 6.977h478.536c5.321 0 10.329-2.527 13.48-6.815 3.151-4.29 4.077-9.822 2.488-14.898z"/><path d="m191.752 376.686c-3.157-3.341-7.557-5.237-12.159-5.237h-124.932v33.464h107.23l-4.579 81.039 33.408 1.885 5.577-98.719c.262-4.59-1.383-9.085-4.545-12.432z"/><path d="m452.883 349.697h-97.046c-9.242 0-16.732 7.49-16.732 16.732s7.49 16.732 16.732 16.732h97.046c9.242 0 16.732-7.49 16.732-16.732s-7.49-16.732-16.732-16.732z"/><path d="m258.791 409.933c-9.242 0-16.732 7.49-16.732 16.732v64.697h33.464v-47.965h201.342v-33.464z"/></svg>