<svg enable-background="new 0 0 512 512" height="512" viewBox="0 0 512 512" width="512" xmlns="http://www.w3.org/2000/svg"><path d="m18 124.365h477.711v387.635h-477.711z" fill="#f5f5f8"/><path d="m256 124.365h239.71v387.635h-239.71z" fill="#cfdae2"/><path d="m.215 30.962h511.57v123.374h-511.57z" fill="#f73"/><path d="m88.769 0h29.973v86.902h-29.973z" fill="#194d80"/><path d="m256 346.446h-39.978c5.586-7.377 12.569-16.915 21.068-29.059 6.927-9.898 11.921-19.211 13.464-27.962.325-1.845.808-5.568.905-7.438 1.19-23.021-18.754-41.806-41.806-41.806-19.931 0-37.183 14.18-41.021 33.719l-2.888 14.706 29.412 5.776 2.888-14.706c1.083-5.517 5.967-9.521 11.61-9.521 6.268 0 11.939 4.887 11.808 11.069-.011.523-.166 1.562-.266 2.075-.677 3.492-3.145 9.018-8.663 16.903-25.029 35.761-35.996 47.531-36.069 47.608l-4.114 4.318-.094 24.58h83.743v-30.262z" fill="#ffc34d"/><path d="m311.538 285.229c-1.299 0-2.582.068-3.854.176 2.05-2.947 4.357-5.61 6.953-7.943 8.932-8.03 18.232-9.519 18.325-9.534l-.204.027-3.644-29.75c-1.724.211-17.285 2.436-32.673 15.365-13.777 11.577-30.199 34.323-30.199 76.954 0 24.976 20.319 45.295 45.295 45.295s45.294-20.32 45.294-45.295c.001-24.976-20.318-45.295-45.293-45.295zm0 60.617c-8.448 0-15.322-6.874-15.322-15.322s6.874-15.321 15.322-15.321 15.321 6.873 15.321 15.321-6.873 15.322-15.321 15.322z" fill="#f93"/><g fill="#f33"><path d="m371.942 387.185h29.973v42.203h-29.973z" transform="matrix(.707 -.707 .707 .707 -175.374 393.184)"/><path d="m389.028 303.195h42.203v29.973h-42.203z"/><path d="m365.828 193.105h42.203v29.973h-42.203z" transform="matrix(.707 -.707 .707 .707 -33.814 334.549)"/></g><g fill="#f73"><path d="m241.013 183.77h29.973v42.203h-29.973z"/><path d="m111.789 186.984h29.973v42.203h-29.973z" transform="matrix(.707 -.707 .707 .707 -110.007 150.59)"/><path d="m82.478 303.195h42.203v29.973h-42.203z"/><path d="m105.672 393.308h42.203v29.973h-42.203z" transform="matrix(.707 -.707 .707 .707 -251.577 209.229)"/><path d="m.215 30.962h2.346v123.374h-2.346z"/></g><path d="m256 30.962h255.786v123.374h-255.786z" fill="#f33"/><path d="m394.968 0h29.973v86.902h-29.973z" fill="#0f2e4d"/><path d="m256 183.77h14.987v42.203h-14.987z" fill="#f33"/><path d="m241.013 410.391h29.973v42.203h-29.973z" fill="#f73"/><path d="m256 410.391h14.987v42.203h-14.987z" fill="#f33"/></svg>