<svg fill="none" height="159" viewBox="0 0 381 159" width="381" xmlns="http://www.w3.org/2000/svg" xmlns:xlink="http://www.w3.org/1999/xlink"><linearGradient id="a"><stop offset="0" stop-color="#ebcb62"/><stop offset=".4573" stop-color="#dbb352"/><stop offset="1" stop-color="#c4923c"/></linearGradient><linearGradient id="b" gradientUnits="userSpaceOnUse" x1="281.404" x2="358.204" xlink:href="#a" y1="28.6179" y2="131.018"/><linearGradient id="c" gradientUnits="userSpaceOnUse" x1="41.5418" x2="114.928" xlink:href="#a" y1="14.9481" y2="135.268"/><linearGradient id="d" gradientUnits="userSpaceOnUse" x1="48.9105" x2="122.297" xlink:href="#a" y1="10.4537" y2="130.774"/><linearGradient id="e" gradientUnits="userSpaceOnUse" x1="179.222" x2="224.985" xlink:href="#a" y1="87.6677" y2="112.192"/><clipPath id="f"><path d="m0 0h381v159h-381z"/></clipPath><g clip-path="url(#f)"><g stroke="#fff" stroke-width="5"><path d="m353.681 101.515-1.298-1.9506-2.03 1.1686-3.301 1.9-.061.036-.059.039c-12.863 8.41-18.762 10.592-26.932 10.592-5.708 0-11.071-1.556-16.323-4.649-10.326-6.2-17.177-17.4268-17.177-28.851 0-6.1548 1.581-11.9164 4.654-17.1308l.008-.0144.009-.0144c5.932-10.3824 17.281-16.5404 28.829-16.5404 7.385 0 13.874 2.1407 19.444 6.132l.082.0594.088.0523c.864.5186 1.992 1.2979 3.218 2.5241l.13.1302.148.1097 3.1 2.3 1.876 1.392 1.516-1.7775 13.9-16.3 1.499-1.7571-1.633-1.6329-2.3-2.3-.031-.0304-.031-.0294c-1.638-1.5287-3.553-2.9078-5.887-4.3354-10.142-7.8025-22.049-11.637-35.119-11.637-16.18 0-31.094 6.2743-42.936 17.701l-.04.0385-.038.0403c-11.394 12.0157-17.886 26.916-17.886 43.1202 0 16.2788 6.475 31.51 17.932 42.968 11.459 11.459 26.791 17.932 42.968 17.932 11.595 0 22.46-3.247 32.546-9.694l2.14-1.367-1.401-2.118-4.1-6.2-1.376-2.082-2.084 1.373c-8.108 5.342-16.532 7.888-25.725 7.888-12.819 0-24.988-5.124-34.232-14.368-9.225-9.224-14.168-21.4852-14.168-34.232 0-12.8337 4.934-24.7987 14.168-34.0322l.009-.0091.009-.0091c9.219-9.409 21.47-14.3496 34.214-14.3496 9.458 0 18.513 2.8059 27.673 8.7272l-1.473 1.6642c-7.873-5.2501-16.684-7.9914-26.1-7.9914-8.511 0-16.147 2.0019-22.951 5.9356l-.011.0062c-13.764 8.0469-22.938 23.9672-22.938 39.9582 0 7.6887 2.242 15.4133 6.331 22.544l.006.01c8.425 14.534 23.929 23.546 39.563 23.546 9.754 0 17.745-2.798 28.669-9.412l8.837 13.102c-13.794 8.799-24.674 12.31-37.506 12.31-11.163 0-21.526-2.785-31.036-8.357l-.011-.007-.012-.006c-19.331-11.06-31.241-31.338-31.241-53.63 0-11.1583 2.783-21.5286 8.366-31.2523 11.056-19.1281 31.531-31.0477 53.834-31.0477 15.682 0 30.569 5.7699 41.895 16.3287l.051.0474.053.0444 1.113.9275 1.62 1.6198 1.802 1.8014 1.767-1.8351 5.2-5.4 1.701-1.7671-1.734-1.7348-2.9-2.9-.05-.0494-.052-.0466c-13.654-12.2058-31.646-19.2362-50.466-19.2362-13.416 0-25.851 3.20418-37.151 9.7355l-.003.0018c-22.655 13.138-37.446 38.1529-37.446 64.6627 0 13.0554 3.424 25.49 10.243 37.064 13.426 23.027 37.626 37.636 64.357 37.636 16.963 0 31.147-5.359 49.791-18.123l2.879-1.886 2.106-1.38-1.395-2.096z" fill="url(#b)"/><path d="m66.2 155.2h2.5v-2.5-125-2.5h-2.5-7.5-2.5v2.5 115h-1.6v-109.4-2.5h-2.5-34.1v-12.8h100.2 2.5v-2.5-7.5-2.5h-2.5-110.2-2.5v2.5 32.8 2.5h2.5 34.1v109.4 2.5h2.5z" fill="url(#c)"/><path d="m79.9998 155.2h2.5v-2.5-109.4001h35.7002 2.5v-2.5-20.0999-2.5h-2.5-96.9002-2.5v2.5 7.4 2.5h2.5 87.0002v.2h-35.7002-2.5v2.5 119.4 2.5h2.5z" fill="url(#d)"/><path d="m213.8 99.5v23.458l-.525.455c-7.32 4.937-16.077 7.487-25.875 7.487-17.604 0-33.883-9.421-42.738-24.656l-.004-.007-.004-.007c-4.375-7.4184-6.654-15.5803-6.654-24.43 0-17.6017 9.419-33.8796 24.651-42.7357 7.635-4.3889 15.806-6.6643 24.649-6.6643 10.428 0 19.836 3.0868 28.283 9.032l-1.71 1.8436c-8.137-5.4675-17.143-8.2756-26.673-8.2756-17.083 0-32.313 8.868-40.565 23.1493l-.006.0104c-4.219 7.3834-6.229 15.1119-6.229 23.5403 0 17.129 8.708 31.633 23.543 40.261l.008.005.009.005c7.334 4.191 15.057 6.429 23.14 6.429 6.953 0 13.93-1.822 21.105-5.357l.028-.014.027-.014 2.1-1.1 1.34-.702v-1.513-12.9-6.375l-4.333 4.676-7.3 7.876c-3.91 1.963-8.275 2.923-12.967 2.923-12.387 0-23.361-6.505-29.423-17.2301l-.015-.0255-.015-.0251c-3.169-5.3137-4.739-10.9575-4.747-16.7731.483-12.641 6.925-23.6266 17.744-29.9775 5.329-2.9873 11.002-4.4687 16.856-4.4687 7.272 0 13.941 2.1328 19.593 6.1957l6.656 5.265 1.813 1.4343 1.572-1.6956 15.2-16.4 1.636-1.7652-1.702-1.7019-2.7-2.7-.118-.118-.133-.1012-5.5-4.2-.067-.0518-.072-.0471c-11.546-7.629-23.618-11.6142-36.178-11.6142-22.585 0-42.408 11.4682-53.558 30.5381l-.007.012-.007.0121c-5.513 9.6737-8.328 20.1998-8.328 31.3378 0 22.015 11.895 42.227 31.145 53.362 9.477 5.519 19.809 8.338 30.755 8.338 12.882 0 23.079-3.14 33.012-9.937l.072-.049.068-.054 4.8-3.8.948-.751v-1.209-36.4-6.3751l-4.333 4.6757-7.6 8.2-.667.719z" fill="#23ae88"/><path d="m229.021 79.444-.721.7301v1.0259 49.537c-17.003 10.887-27.364 14.463-40.7 14.463-22.701 0-43.577-12.118-54.933-31.847l-.004-.007-.004-.007c-5.677-9.718-8.559-20.2834-8.559-31.639 0-22.7091 12.125-43.7812 31.847-55.1333l.007-.004.007-.004c9.719-5.6771 20.284-8.5587 31.639-8.5587 15.974 0 31.245 5.8633 42.763 16.5985l2.969 2.9693 1.801 1.8008 1.767-1.8339 5.3-5.5 1.6-1.6601-1.525-1.7287-1.5-1.7-.052-.0585-.055-.0552c-.625-.6247-1.371-1.2047-2.006-1.5797-14.018-12.584-32.221-19.7525-51.062-19.7525-27.695 0-51.62 13.778-65.565 37.9507-6.912 11.9667-10.435 24.7958-10.435 38.3493 0 25.999 14.78 51.911 38.332 65.555 11.581 6.924 24.219 10.445 37.768 10.445 17.573 0 31.461-5.366 50.507-18.334l.12-.081.11-.096 1.5-1.3.863-.747v-1.142-62.5-6.0925l-4.279 4.3365z" fill="#23ae88"/></g><path d="m227.1 103.9h-45.6c-1.7 0-2.7-1.4-2.2-3l7.1-26.5c.4-1.7 2.2-3 3.8-3h45.6c1.7 0 2.7 1.4 2.2 3l-7.1 26.5c-.4 1.7-2.1 3-3.8 3z" fill="url(#e)"/></g></svg>