<svg viewBox="0 0 363.71 147.29" xmlns="http://www.w3.org/2000/svg" xmlns:xlink="http://www.w3.org/1999/xlink"><linearGradient id="a" gradientUnits="userSpaceOnUse" x1="244.28" x2="374.17" y1="47.35" y2="94.62"><stop offset=".23" stop-color="#e6e7e7"/><stop offset="1" stop-color="#a8aaad"/></linearGradient><linearGradient id="b" x1="-14.66" x2="95.43" xlink:href="#a" y1="40.28" y2="80.35"/><linearGradient id="c" x1="123.66" x2="226.53" xlink:href="#a" y1="53.34" y2="90.78"/><linearGradient id="d" x1="110.53" x2="241.73" xlink:href="#a" y1="48.48" y2="96.24"/><linearGradient id="e" gradientTransform="matrix(1 0 -.54 1 -229.44 0)" gradientUnits="userSpaceOnUse" x1="443.39" x2="502.29" y1="79.73" y2="79.73"><stop offset="0" stop-color="#eccc63"/><stop offset=".45" stop-color="#dcb452"/><stop offset="1" stop-color="#c49239"/></linearGradient><path d="m340.34 97c-13 8.47-19.45 11-28.34 11a33.82 33.82 0 0 1 -17.58-5c-11-6.61-18.4-18.61-18.4-31a35.57 35.57 0 0 1 5-18.4 36 36 0 0 1 31-17.79 34.87 34.87 0 0 1 20.89 6.62 17.81 17.81 0 0 1 3.72 2.89l3.11 2.28 13.85-16.34-2.29-2.26a32.86 32.86 0 0 0 -5.58-4.13 54.17 54.17 0 0 0 -33.72-11.22c-15.5 0-29.78 6-41.15 17-11 11.58-17.17 25.85-17.17 41.36a58.61 58.61 0 0 0 58.32 58.28 56.87 56.87 0 0 0 31.23-9.3l-4.13-6.21a47.94 47.94 0 0 1 -27.1 8.27 51.18 51.18 0 0 1 -50.87-51.05 50.07 50.07 0 0 1 14.87-35.81 49.88 49.88 0 0 1 36-15.1c10.14 0 19.86 3.11 29.58 9.52l1.65 1.45-4.55 5.17a3.46 3.46 0 0 1 -1.45-.83 44.35 44.35 0 0 0 -25.23-7.86 42.46 42.46 0 0 0 -21.71 5.58 45.11 45.11 0 0 0 -21.71 37.88 42.59 42.59 0 0 0 6 21.3c8.06 13.86 22.75 22.34 37.43 22.34 9.72 0 17.59-2.9 29.37-10.34l11.62 17.13c-15.1 9.93-26.88 14.07-40.95 14.07a62.94 62.94 0 0 1 -32.26-8.69 64.56 64.56 0 0 1 32.21-120.57 63.81 63.81 0 0 1 43.64 17l1.24 1 1.66 1.66 5.17-5.38-2.9-2.9a73.56 73.56 0 0 0 -48.81-18.62 69.9 69.9 0 0 0 -36 9.51 72.89 72.89 0 0 0 -36.17 62.49 69.18 69.18 0 0 0 9.92 35.78c13 22.34 36.4 36.4 62.25 36.4 16.34 0 30-5.17 48.4-17.79l2.9-1.86-19.66-29.6z" fill="url(#a)"/><path d="m110.25 12.67h-96.9v7.47h37.34v117.08h-6.62v-111.88h-36.61v-17.88h102.79v-7.46h-110.25v32.81h36.61v111.87h21.54v-124.54h44.63v5.2h-38.22v119.34h7.46v-111.87h38.23z" fill="url(#b)"/><path d="m161.44 41.72a37 37 0 0 1 18.12-4.84 35.36 35.36 0 0 1 21.07 6.74l6.74 5.27 15.17-16.44-2.74-2.74-5.47-4.21c-11.17-7.38-22.76-11.17-34.77-11.17a58.67 58.67 0 0 0 -51.42 29.29 60.22 60.22 0 0 0 -8 30.13 59.24 59.24 0 0 0 29.92 51.25 58 58 0 0 0 29.5 8c12.43 0 22.12-3 31.61-9.48l4.84-3.79v-36.41l-7.58 8.21v24.58l-1.43 1.26a48.11 48.11 0 0 1 -27.39 8 51.88 51.88 0 0 1 -44.89-25.92 49.63 49.63 0 0 1 -6.95-25.71 51.87 51.87 0 0 1 25.92-44.88 51.61 51.61 0 0 1 56.26 2.95l1.69 1.26-5.06 5.48-1.47-1.05a45.06 45.06 0 0 0 -25.5-8 43.91 43.91 0 0 0 -44.25 44.25c0 16.23 8.21 29.92 22.33 38.14a43.56 43.56 0 0 0 21.87 6.11c6.53 0 13.06-1.68 20-5.06l2.11-1v-8.67l-7.58 3.83a30.88 30.88 0 0 1 -14.54 3.37 35.9 35.9 0 0 1 -31.55-18.6 35.18 35.18 0 0 1 -5.06-18.12 36.59 36.59 0 0 1 18.5-32.03z" fill="url(#c)"/><path d="m227 27.82 5.27-5.48-1.48-1.69a6.88 6.88 0 0 0 -1.68-1.26 73.13 73.13 0 0 0 -49.55-19.39c-26.76 0-49.94 13.27-63.43 36.67a72.73 72.73 0 0 0 -10.13 37.08c0 25.08 14.33 50.15 37.08 63.43a69.46 69.46 0 0 0 36.46 10.11c16.86 0 30.34-5 49.1-17.91l1.47-1.26v-62.5l-7.36 7.57v50.92c-17.91 11.59-28.86 15.6-43.19 15.6a66 66 0 0 1 -57.11-33.09 64.09 64.09 0 0 1 -8.85-32.87 66.29 66.29 0 0 1 33.08-57.31 64.16 64.16 0 0 1 32.88-8.85 65 65 0 0 1 44.44 17.28z" fill="url(#d)"/><path d="m219.09 96h-45.56a2.24 2.24 0 0 1 -2.21-3l7.1-26.51a4.24 4.24 0 0 1 3.82-3h45.57a2.23 2.23 0 0 1 2.2 3l-7.1 26.51a4.23 4.23 0 0 1 -3.82 3z" fill="url(#e)"/></svg>