<svg xmlns="http://www.w3.org/2000/svg" xmlns:xlink="http://www.w3.org/1999/xlink" width="381" height="159" fill="none" viewBox="0 0 381 159"><linearGradient id="a"><stop offset="0" stop-color="#ebcb62"/><stop offset=".457" stop-color="#dbb352"/><stop offset="1" stop-color="#c4923c"/></linearGradient><linearGradient id="c" x1="281.404" x2="358.204" y1="28.618" y2="131.018" gradientUnits="userSpaceOnUse" xlink:href="#a"/><linearGradient id="d" x1="41.542" x2="114.928" y1="14.948" y2="135.268" gradientUnits="userSpaceOnUse" xlink:href="#a"/><linearGradient id="e" x1="48.91" x2="122.297" y1="10.454" y2="130.774" gradientUnits="userSpaceOnUse" xlink:href="#a"/><linearGradient id="f" x1="179.222" x2="224.985" y1="87.668" y2="112.192" gradientUnits="userSpaceOnUse" xlink:href="#a"/><clipPath id="b"><path d="M0 0h381v159H0z"/></clipPath><g clip-path="url(#b)"><g stroke="#fff" stroke-width="5"><path fill="url(#c)" d="M353.681 101.515l-1.298-1.95-2.03 1.168-3.301 1.9-.061.036-.059.039C334.069 111.118 328.17 113.3 320 113.3c-5.708 0-11.071-1.556-16.323-4.649-10.326-6.2-17.177-17.427-17.177-28.851 0-6.155 1.581-11.916 4.654-17.13l.008-.015.009-.015C297.103 52.258 308.452 46.1 320 46.1c7.385 0 13.874 2.14 19.444 6.132l.082.06.088.052a16.498 16.498 0 0 1 3.218 2.524l.13.13.148.11 3.1 2.3 1.876 1.392 1.516-1.778 13.9-16.3 1.499-1.757-1.633-1.633-2.3-2.3-.031-.03-.031-.03c-1.638-1.528-3.553-2.907-5.887-4.335C344.977 22.834 333.07 19 320 19c-16.18 0-31.094 6.274-42.936 17.701l-.04.038-.038.04C265.592 48.796 259.1 63.697 259.1 79.9c0 16.279 6.475 31.51 17.932 42.968C288.491 134.327 303.823 140.8 320 140.8c11.595 0 22.46-3.247 32.546-9.694l2.14-1.367-1.401-2.118-4.1-6.2-1.376-2.082-2.084 1.373c-8.108 5.342-16.532 7.888-25.725 7.888-12.819 0-24.988-5.124-34.232-14.368C276.543 105.008 271.6 92.747 271.6 80c0-12.834 4.934-24.799 14.168-34.032l.009-.01.009-.008c9.219-9.41 21.47-14.35 34.214-14.35 9.458 0 18.513 2.806 27.673 8.727l-1.473 1.664C338.327 36.741 329.516 34 320.1 34c-8.511 0-16.147 2.002-22.951 5.936l-.011.006C283.374 47.989 274.2 63.909 274.2 79.9c0 7.689 2.242 15.413 6.331 22.544l.006.01C288.962 116.988 304.466 126 320.1 126c9.754 0 17.745-2.798 28.669-9.412l8.837 13.102C343.812 138.489 332.932 142 320.1 142c-11.163 0-21.526-2.785-31.036-8.357l-.011-.007-.012-.006C269.71 122.57 257.8 102.292 257.8 80c0-11.158 2.783-21.529 8.366-31.252A62.178 62.178 0 0 1 320 17.7c15.682 0 30.569 5.77 41.895 16.329l.051.047.053.045 1.113.927 1.62 1.62 1.802 1.801 1.767-1.835 5.2-5.4 1.701-1.767-1.734-1.735-2.9-2.9-.05-.05-.052-.046C356.812 12.53 338.82 5.5 320 5.5c-13.416 0-25.851 3.204-37.151 9.736l-.003.001C260.191 28.375 245.4 53.39 245.4 79.9c0 13.055 3.424 25.49 10.243 37.064C269.069 139.991 293.269 154.6 320 154.6c16.963 0 31.147-5.359 49.791-18.123l2.879-1.886 2.106-1.38-1.395-2.096z"/><path fill="url(#d)" d="M66.2 155.2h2.5v-130H56.2v117.5h-1.6V30.8H18V18h102.7V5.5H5.5v37.8h36.6v111.9h2.5z"/><path fill="url(#e)" d="M80 155.2h2.5V43.3h38.2V18.2H18.8v12.4h89.5v.2H70.1v124.4h2.5z"/><g fill="#23ae88"><path d="M213.8 99.5v23.458l-.525.455c-7.32 4.937-16.077 7.487-25.875 7.487-17.604 0-33.883-9.421-42.738-24.656l-.004-.007-.004-.007C140.279 98.812 138 90.65 138 81.8c0-17.602 9.419-33.88 24.651-42.736 7.635-4.389 15.806-6.664 24.649-6.664 10.428 0 19.836 3.087 28.283 9.032l-1.71 1.844C205.736 37.808 196.73 35 187.2 35c-17.083 0-32.313 8.868-40.565 23.15l-.006.01c-4.219 7.383-6.229 15.112-6.229 23.54 0 17.129 8.708 31.633 23.543 40.261l.008.005.009.005c7.334 4.191 15.057 6.429 23.14 6.429 6.953 0 13.93-1.822 21.105-5.357l.028-.014.027-.014 2.1-1.1 1.34-.702v-20.788l-4.333 4.676-7.3 7.876c-3.91 1.963-8.275 2.923-12.967 2.923-12.387 0-23.361-6.505-29.423-17.23l-.015-.026-.015-.025c-3.169-5.313-4.739-10.957-4.747-16.773.483-12.64 6.925-23.626 17.744-29.977 5.329-2.988 11.002-4.469 16.856-4.469 7.272 0 13.941 2.133 19.593 6.196l6.656 5.265 1.813 1.434 1.572-1.696 15.2-16.4 1.636-1.765-1.702-1.702-2.7-2.7-.118-.118-.133-.1-5.5-4.2-.067-.053-.072-.047C212.132 23.885 200.06 19.9 187.5 19.9c-22.585 0-42.408 11.468-53.558 30.538l-.007.012-.007.012c-5.513 9.674-8.328 20.2-8.328 31.338 0 22.015 11.895 42.227 31.145 53.362 9.477 5.519 19.809 8.338 30.755 8.338 12.882 0 23.079-3.14 33.012-9.937l.072-.049.068-.054 4.8-3.8.948-.751V84.925l-4.333 4.676-7.6 8.2-.667.719z"/><path d="M229.021 79.444l-.721.73v50.563c-17.003 10.887-27.364 14.463-40.7 14.463-22.701 0-43.577-12.118-54.933-31.847l-.004-.007-.004-.007c-5.677-9.718-8.559-20.283-8.559-31.639 0-22.71 12.125-43.781 31.847-55.133l.007-.004.007-.004C165.68 20.882 176.245 18 187.6 18c15.974 0 31.245 5.863 42.763 16.598l2.969 2.97 1.801 1.8 1.767-1.833 5.3-5.5 1.6-1.66-1.525-1.73-1.5-1.7-.052-.058-.055-.055a10.757 10.757 0 0 0-2.006-1.58C224.644 12.668 206.441 5.5 187.6 5.5c-27.695 0-51.62 13.778-65.565 37.95C115.123 55.418 111.6 68.247 111.6 81.8c0 25.999 14.78 51.911 38.332 65.555 11.581 6.924 24.219 10.445 37.768 10.445 17.573 0 31.461-5.366 50.507-18.334l.12-.081.11-.096 1.5-1.3.863-.747V67.507l-4.279 4.337z"/></g></g><path fill="url(#f)" d="M227.1 103.9h-45.6c-1.7 0-2.7-1.4-2.2-3l7.1-26.5c.4-1.7 2.2-3 3.8-3h45.6c1.7 0 2.7 1.4 2.2 3l-7.1 26.5c-.4 1.7-2.1 3-3.8 3z"/></g></svg>